<svg width="1200" height="727" viewBox="0 0 1200 727" fill="none" xmlns="http://www.w3.org/2000/svg">
<g opacity="0.6">
<rect width="409.726" height="632.639" rx="19" transform="matrix(-0.866025 -0.5 0.866025 -0.5 651.437 695.274)" fill="url(#paint0_linear_155_1289)"/>
</g>
<g opacity="0.8">
<rect width="409.726" height="632.639" rx="19" transform="matrix(-0.866025 -0.5 0.866025 -0.5 651.437 670.274)" fill="url(#paint1_linear_155_1289)"/>
</g>
<g opacity="0.6">
<rect opacity="0.4" width="409.726" height="632.639" rx="19" transform="matrix(0.866025 0.5 -0.866025 0.5 844.485 205.092)" fill="url(#paint2_linear_155_1289)"/>
</g>
<rect width="409.726" height="632.639" rx="19" transform="matrix(0.866025 0.5 -0.866025 0.5 844.485 110.092)" fill="url(#paint3_linear_155_1289)"/>
<rect width="352.87" height="98.3704" rx="19" transform="matrix(0.866025 0.5 -0.866025 0.5 839.795 140.776)" fill="url(#paint4_linear_155_1289)"/>
<rect width="352.87" height="98.3704" rx="19" transform="matrix(0.866025 0.5 -0.866025 0.5 807.795 97.0914)" fill="url(#paint5_linear_155_1289)"/>
<rect width="82.1257" height="76.7108" rx="19" transform="matrix(0.866025 0.5 -0.866025 0.5 739.754 198.535)" fill="url(#paint6_linear_155_1289)"/>
<rect width="82.1257" height="76.7108" rx="19" transform="matrix(0.866025 0.5 -0.866025 0.5 817.911 243.659)" fill="url(#paint7_linear_155_1289)"/>
<rect width="82.1257" height="76.7108" rx="19" transform="matrix(0.866025 0.5 -0.866025 0.5 896.068 288.783)" fill="url(#paint8_linear_155_1289)"/>
<rect width="82.1257" height="76.7108" rx="19" transform="matrix(0.866025 0.5 -0.866025 0.5 974.226 333.907)" fill="url(#paint9_linear_155_1289)"/>
<rect width="82.1257" height="76.7108" rx="19" transform="matrix(0.866025 0.5 -0.866025 0.5 739.754 198.535)" fill="url(#paint10_linear_155_1289)"/>
<rect width="82.1257" height="76.7108" rx="19" transform="matrix(0.866025 0.5 -0.866025 0.5 817.911 243.659)" fill="url(#paint11_linear_155_1289)"/>
<rect width="82.1257" height="76.7108" rx="19" transform="matrix(0.866025 0.5 -0.866025 0.5 896.068 288.783)" fill="url(#paint12_linear_155_1289)"/>
<rect width="82.1257" height="76.7108" rx="19" transform="matrix(0.866025 0.5 -0.866025 0.5 974.226 333.907)" fill="url(#paint13_linear_155_1289)"/>
<rect width="82.1257" height="76.7108" rx="19" transform="matrix(0.866025 0.5 -0.866025 0.5 659.252 245.012)" fill="url(#paint14_linear_155_1289)"/>
<rect width="82.1257" height="76.7108" rx="19" transform="matrix(0.866025 0.5 -0.866025 0.5 737.409 290.136)" fill="url(#paint15_linear_155_1289)"/>
<rect width="82.1257" height="76.7108" rx="19" transform="matrix(0.866025 0.5 -0.866025 0.5 815.566 335.26)" fill="url(#paint16_linear_155_1289)"/>
<rect width="82.1257" height="76.7108" rx="19" transform="matrix(0.866025 0.5 -0.866025 0.5 893.724 380.385)" fill="url(#paint17_linear_155_1289)"/>
<rect width="82.1257" height="76.7108" rx="19" transform="matrix(0.866025 0.5 -0.866025 0.5 658.471 245.464)" fill="url(#paint18_linear_155_1289)"/>
<rect width="82.1257" height="76.7108" rx="19" transform="matrix(0.866025 0.5 -0.866025 0.5 736.628 290.588)" fill="url(#paint19_linear_155_1289)"/>
<rect width="82.1257" height="76.7108" rx="19" transform="matrix(0.866025 0.5 -0.866025 0.5 814.785 335.712)" fill="url(#paint20_linear_155_1289)"/>
<rect width="82.1257" height="76.7108" rx="19" transform="matrix(0.866025 0.5 -0.866025 0.5 892.942 380.836)" fill="url(#paint21_linear_155_1289)"/>
<rect width="82.1257" height="76.7108" rx="19" transform="matrix(0.866025 0.5 -0.866025 0.5 577.188 292.393)" fill="url(#paint22_linear_155_1289)"/>
<rect width="82.1257" height="76.7108" rx="19" transform="matrix(0.866025 0.5 -0.866025 0.5 655.345 337.517)" fill="url(#paint23_linear_155_1289)"/>
<rect width="82.1257" height="76.7108" rx="19" transform="matrix(0.866025 0.5 -0.866025 0.5 733.502 382.641)" fill="url(#paint24_linear_155_1289)"/>
<rect width="82.1257" height="76.7108" rx="19" transform="matrix(0.866025 0.5 -0.866025 0.5 811.659 427.765)" fill="url(#paint25_linear_155_1289)"/>
<rect width="82.1257" height="76.7108" rx="19" transform="matrix(0.866025 0.5 -0.866025 0.5 495.904 339.322)" fill="url(#paint26_linear_155_1289)"/>
<rect width="82.1257" height="76.7108" rx="19" transform="matrix(0.866025 0.5 -0.866025 0.5 574.061 384.446)" fill="url(#paint27_linear_155_1289)"/>
<rect width="82.1257" height="76.7108" rx="19" transform="matrix(0.866025 0.5 -0.866025 0.5 652.218 429.57)" fill="url(#paint28_linear_155_1289)"/>
<rect width="82.1257" height="170.569" rx="19" transform="matrix(0.866025 0.5 -0.866025 0.5 730.375 474.694)" fill="url(#paint29_linear_155_1289)"/>
<rect width="82.1257" height="76.7108" rx="19" transform="matrix(0.866025 0.5 -0.866025 0.5 414.621 386.25)" fill="url(#paint30_linear_155_1289)"/>
<rect opacity="0.8" width="82.1257" height="76.7108" rx="19" transform="matrix(0.866025 0.5 -0.866025 0.5 405.037 356.092)" fill="url(#paint31_linear_155_1289)"/>
<rect width="82.1257" height="76.7108" rx="19" transform="matrix(0.866025 0.5 -0.866025 0.5 492.778 431.375)" fill="url(#paint32_linear_155_1289)"/>
<rect width="82.1257" height="76.7108" rx="19" transform="matrix(0.866025 0.5 -0.866025 0.5 570.935 476.499)" fill="url(#paint33_linear_155_1289)"/>
<path d="M233 174L425.258 63C444.389 51.9543 475.408 51.9543 494.54 63L710.422 187.64" stroke="url(#paint34_linear_155_1289)" stroke-width="3"/>
<rect opacity="0.8" width="195.722" height="195.722" rx="10" transform="matrix(0.866025 0.5 -0.866025 0.5 169.5 130)" fill="white"/>
<rect opacity="0.6" width="195.722" height="195.722" rx="10" transform="matrix(0.866025 0.5 -0.866025 0.5 169.5 147.252)" fill="white"/>
<rect opacity="0.4" width="195.722" height="195.722" rx="10" transform="matrix(0.866025 0.5 -0.866025 0.5 169.5 164.505)" fill="white"/>
<path d="M158.19 241.159L158.19 59.3409L168.277 65.1648L168.277 246.983L158.19 241.159ZM192.142 133.489C191.404 125.866 188.411 118.55 183.162 111.543C177.914 104.535 171.476 98.8295 163.849 94.4261C158.272 91.2064 153.393 89.4309 149.21 89.0994C145.069 88.7917 141.829 89.786 139.492 92.0824C137.196 94.4025 136.047 97.8826 136.047 102.523C136.047 106.405 136.847 110.205 138.446 113.922C140.086 117.615 142.178 121.119 144.72 124.433C147.262 127.7 149.928 130.731 152.716 133.524C155.504 136.27 158.067 138.673 160.404 140.733L173.198 152.097C176.478 154.985 180.128 158.465 184.146 162.537C188.206 166.633 192.081 171.261 195.771 176.422C199.503 181.559 202.578 187.17 204.997 193.254C207.417 199.339 208.626 205.79 208.626 212.608C208.626 220.468 206.843 226.54 203.275 230.825C199.749 235.134 194.582 237.194 187.775 237.004C181.009 236.839 172.788 233.962 163.111 228.375C154.09 223.167 146.278 216.976 139.676 209.803C133.116 202.653 127.949 194.982 124.176 186.791C120.445 178.624 118.333 170.42 117.841 162.182L133.587 171.273C133.997 177.002 135.596 182.471 138.385 187.679C141.214 192.864 144.781 197.575 149.087 201.813C153.434 206.027 158.108 209.578 163.111 212.466C168.933 215.828 174.162 217.757 178.795 218.254C183.429 218.704 187.099 217.745 189.805 215.378C192.511 212.963 193.864 209.104 193.864 203.801C193.864 198.972 192.696 194.367 190.359 189.987C188.021 185.607 184.946 181.37 181.132 177.274C177.319 173.179 173.198 169.142 168.769 165.165L153.27 151.102C143.428 142.153 135.637 132.991 129.897 123.616C124.156 114.241 121.286 104.653 121.286 94.8523C121.286 86.7083 123.192 80.7069 127.006 76.848C130.86 72.9654 136.027 71.2135 142.506 71.5923C149.025 71.9474 156.304 74.4451 164.341 79.0852C172.46 83.7727 179.677 89.6203 185.991 96.6278C192.306 103.588 197.309 111.022 200.999 118.929C204.731 126.86 206.699 134.554 206.904 142.011L192.142 133.489Z" fill="url(#paint35_linear_155_1289)"/>
<defs>
<linearGradient id="paint0_linear_155_1289" x1="565.855" y1="-251.792" x2="996.753" y2="277.804" gradientUnits="userSpaceOnUse">
<stop stop-color="#7400B8"/>
<stop offset="1" stop-color="#00FFD4"/>
</linearGradient>
<linearGradient id="paint1_linear_155_1289" x1="565.855" y1="-251.792" x2="996.753" y2="277.804" gradientUnits="userSpaceOnUse">
<stop stop-color="#7400B8"/>
<stop offset="1" stop-color="#00FFD4"/>
</linearGradient>
<linearGradient id="paint2_linear_155_1289" x1="565.855" y1="-251.792" x2="996.753" y2="277.804" gradientUnits="userSpaceOnUse">
<stop stop-color="#7400B8"/>
<stop offset="1" stop-color="#00FFD4"/>
</linearGradient>
<linearGradient id="paint3_linear_155_1289" x1="565.855" y1="-251.792" x2="996.753" y2="277.804" gradientUnits="userSpaceOnUse">
<stop stop-color="#7400B8"/>
<stop offset="1" stop-color="#00FFD4"/>
</linearGradient>
<linearGradient id="paint4_linear_155_1289" x1="303.451" y1="146.202" x2="316.6" y2="-97.4133" gradientUnits="userSpaceOnUse">
<stop stop-color="#00FFD4"/>
<stop offset="1" stop-color="#06DFC8" stop-opacity="0.4"/>
</linearGradient>
<linearGradient id="paint5_linear_155_1289" x1="303.451" y1="146.202" x2="316.6" y2="-97.4133" gradientUnits="userSpaceOnUse">
<stop stop-color="#51FFE2"/>
<stop offset="1" stop-color="#ADFFF6" stop-opacity="0.61"/>
</linearGradient>
<linearGradient id="paint6_linear_155_1289" x1="70.6241" y1="114.011" x2="103.989" y2="-70.484" gradientUnits="userSpaceOnUse">
<stop stop-color="#48BFE3"/>
<stop offset="1" stop-color="#00FFD4"/>
</linearGradient>
<linearGradient id="paint7_linear_155_1289" x1="70.6241" y1="114.011" x2="103.989" y2="-70.484" gradientUnits="userSpaceOnUse">
<stop stop-color="#48BFE3"/>
<stop offset="1" stop-color="#00FFD4"/>
</linearGradient>
<linearGradient id="paint8_linear_155_1289" x1="70.6241" y1="114.011" x2="103.989" y2="-70.484" gradientUnits="userSpaceOnUse">
<stop stop-color="#48BFE3"/>
<stop offset="1" stop-color="#00FFD4"/>
</linearGradient>
<linearGradient id="paint9_linear_155_1289" x1="70.6241" y1="114.011" x2="103.989" y2="-70.484" gradientUnits="userSpaceOnUse">
<stop stop-color="#48BFE3"/>
<stop offset="1" stop-color="#00FFD4"/>
</linearGradient>
<linearGradient id="paint10_linear_155_1289" x1="70.6241" y1="114.011" x2="103.989" y2="-70.484" gradientUnits="userSpaceOnUse">
<stop stop-color="#48BFE3"/>
<stop offset="1" stop-color="#00FFD4"/>
</linearGradient>
<linearGradient id="paint11_linear_155_1289" x1="70.6241" y1="114.011" x2="103.989" y2="-70.484" gradientUnits="userSpaceOnUse">
<stop stop-color="#48BFE3"/>
<stop offset="1" stop-color="#00FFD4"/>
</linearGradient>
<linearGradient id="paint12_linear_155_1289" x1="70.6241" y1="114.011" x2="103.989" y2="-70.484" gradientUnits="userSpaceOnUse">
<stop stop-color="#48BFE3"/>
<stop offset="1" stop-color="#00FFD4"/>
</linearGradient>
<linearGradient id="paint13_linear_155_1289" x1="70.6241" y1="114.011" x2="103.989" y2="-70.484" gradientUnits="userSpaceOnUse">
<stop stop-color="#48BFE3"/>
<stop offset="1" stop-color="#00FFD4"/>
</linearGradient>
<linearGradient id="paint14_linear_155_1289" x1="70.6241" y1="114.011" x2="103.989" y2="-70.484" gradientUnits="userSpaceOnUse">
<stop stop-color="#48BFE3"/>
<stop offset="1" stop-color="#00FFD4"/>
</linearGradient>
<linearGradient id="paint15_linear_155_1289" x1="70.6241" y1="114.011" x2="103.989" y2="-70.484" gradientUnits="userSpaceOnUse">
<stop stop-color="#48BFE3"/>
<stop offset="1" stop-color="#00FFD4"/>
</linearGradient>
<linearGradient id="paint16_linear_155_1289" x1="70.6241" y1="114.011" x2="103.989" y2="-70.484" gradientUnits="userSpaceOnUse">
<stop stop-color="#48BFE3"/>
<stop offset="1" stop-color="#00FFD4"/>
</linearGradient>
<linearGradient id="paint17_linear_155_1289" x1="70.6241" y1="114.011" x2="103.989" y2="-70.484" gradientUnits="userSpaceOnUse">
<stop stop-color="#48BFE3"/>
<stop offset="1" stop-color="#00FFD4"/>
</linearGradient>
<linearGradient id="paint18_linear_155_1289" x1="70.6241" y1="114.011" x2="103.989" y2="-70.484" gradientUnits="userSpaceOnUse">
<stop stop-color="#48BFE3"/>
<stop offset="1" stop-color="#00FFD4"/>
</linearGradient>
<linearGradient id="paint19_linear_155_1289" x1="70.6241" y1="114.011" x2="103.989" y2="-70.484" gradientUnits="userSpaceOnUse">
<stop stop-color="#48BFE3"/>
<stop offset="1" stop-color="#00FFD4"/>
</linearGradient>
<linearGradient id="paint20_linear_155_1289" x1="70.6241" y1="114.011" x2="103.989" y2="-70.484" gradientUnits="userSpaceOnUse">
<stop stop-color="#48BFE3"/>
<stop offset="1" stop-color="#00FFD4"/>
</linearGradient>
<linearGradient id="paint21_linear_155_1289" x1="70.6241" y1="114.011" x2="103.989" y2="-70.484" gradientUnits="userSpaceOnUse">
<stop stop-color="#48BFE3"/>
<stop offset="1" stop-color="#00FFD4"/>
</linearGradient>
<linearGradient id="paint22_linear_155_1289" x1="70.6241" y1="114.011" x2="103.989" y2="-70.484" gradientUnits="userSpaceOnUse">
<stop stop-color="#48BFE3"/>
<stop offset="1" stop-color="#00FFD4"/>
</linearGradient>
<linearGradient id="paint23_linear_155_1289" x1="70.6241" y1="114.011" x2="103.989" y2="-70.484" gradientUnits="userSpaceOnUse">
<stop stop-color="#48BFE3"/>
<stop offset="1" stop-color="#00FFD4"/>
</linearGradient>
<linearGradient id="paint24_linear_155_1289" x1="70.6241" y1="114.011" x2="103.989" y2="-70.484" gradientUnits="userSpaceOnUse">
<stop stop-color="#48BFE3"/>
<stop offset="1" stop-color="#00FFD4"/>
</linearGradient>
<linearGradient id="paint25_linear_155_1289" x1="70.6241" y1="114.011" x2="103.989" y2="-70.484" gradientUnits="userSpaceOnUse">
<stop stop-color="#48BFE3"/>
<stop offset="1" stop-color="#00FFD4"/>
</linearGradient>
<linearGradient id="paint26_linear_155_1289" x1="70.6241" y1="114.011" x2="103.989" y2="-70.484" gradientUnits="userSpaceOnUse">
<stop stop-color="#48BFE3"/>
<stop offset="1" stop-color="#00FFD4"/>
</linearGradient>
<linearGradient id="paint27_linear_155_1289" x1="70.6241" y1="114.011" x2="103.989" y2="-70.484" gradientUnits="userSpaceOnUse">
<stop stop-color="#48BFE3"/>
<stop offset="1" stop-color="#00FFD4"/>
</linearGradient>
<linearGradient id="paint28_linear_155_1289" x1="70.6241" y1="114.011" x2="103.989" y2="-70.484" gradientUnits="userSpaceOnUse">
<stop stop-color="#48BFE3"/>
<stop offset="1" stop-color="#00FFD4"/>
</linearGradient>
<linearGradient id="paint29_linear_155_1289" x1="70.6241" y1="253.506" x2="217.268" y2="-111.172" gradientUnits="userSpaceOnUse">
<stop stop-color="#6930C3"/>
<stop offset="1" stop-color="#271F7F"/>
</linearGradient>
<linearGradient id="paint30_linear_155_1289" x1="70.6241" y1="114.011" x2="103.989" y2="-70.484" gradientUnits="userSpaceOnUse">
<stop stop-color="#48BFE3"/>
<stop offset="1" stop-color="#00FFD4"/>
</linearGradient>
<linearGradient id="paint31_linear_155_1289" x1="70.6241" y1="114.011" x2="103.989" y2="-70.484" gradientUnits="userSpaceOnUse">
<stop stop-color="#48BFE3"/>
<stop offset="1" stop-color="#00FFD4"/>
</linearGradient>
<linearGradient id="paint32_linear_155_1289" x1="70.6241" y1="114.011" x2="103.989" y2="-70.484" gradientUnits="userSpaceOnUse">
<stop stop-color="#48BFE3"/>
<stop offset="1" stop-color="#00FFD4"/>
</linearGradient>
<linearGradient id="paint33_linear_155_1289" x1="70.6241" y1="114.011" x2="103.989" y2="-70.484" gradientUnits="userSpaceOnUse">
<stop stop-color="#48BFE3"/>
<stop offset="1" stop-color="#00FFD4"/>
</linearGradient>
<linearGradient id="paint34_linear_155_1289" x1="150.759" y1="174.474" x2="369.298" y2="-125.648" gradientUnits="userSpaceOnUse">
<stop stop-color="#6930C3"/>
<stop offset="1" stop-color="#00FFD4"/>
</linearGradient>
<linearGradient id="paint35_linear_155_1289" x1="80.7527" y1="-64.0664" x2="319.331" y2="-48.2538" gradientUnits="userSpaceOnUse">
<stop stop-color="#6930C3"/>
<stop offset="1" stop-color="#00FFD4"/>
</linearGradient>
</defs>
</svg>
