<svg width="278" height="319" viewBox="0 0 278 319" fill="none" xmlns="http://www.w3.org/2000/svg">
<rect width="278" height="319" rx="30" fill="url(#paint0_linear_33_1087)"/>
<rect opacity="0.4" x="-2.98023e-08" y="0.5" width="88.5668" height="88.5668" rx="19.5" transform="matrix(0.866025 0.5 -0.866025 0.5 147 205.891)" fill="url(#paint1_linear_33_1087)" stroke="url(#paint2_linear_33_1087)"/>
<rect opacity="0.6" x="-2.98023e-08" y="0.5" width="88.5668" height="88.5668" rx="19.5" transform="matrix(0.866025 0.5 -0.866025 0.5 147 197.514)" fill="url(#paint3_linear_33_1087)" stroke="url(#paint4_linear_33_1087)"/>
<rect opacity="0.8" x="-2.98023e-08" y="0.5" width="88.5668" height="88.5668" rx="19.5" transform="matrix(0.866025 0.5 -0.866025 0.5 147 185.915)" fill="url(#paint5_linear_33_1087)" stroke="url(#paint6_linear_33_1087)"/>
<rect opacity="0.8" width="46.5593" height="46.5593" rx="10" transform="matrix(0.866025 0.5 -0.866025 0.5 63.3215 157)" fill="white"/>
<rect opacity="0.6" width="46.5593" height="46.5593" rx="10" transform="matrix(0.866025 0.5 -0.866025 0.5 63.3215 161)" fill="white"/>
<rect opacity="0.4" width="46.5593" height="46.5593" rx="10" transform="matrix(0.866025 0.5 -0.866025 0.5 63.3215 165)" fill="white"/>
<rect opacity="0.8" width="46.5593" height="46.5593" rx="10" transform="matrix(0.866025 0.5 -0.866025 0.5 226.322 157)" fill="white"/>
<rect opacity="0.6" width="46.5593" height="46.5593" rx="10" transform="matrix(0.866025 0.5 -0.866025 0.5 226.322 161)" fill="white"/>
<rect opacity="0.4" width="46.5593" height="46.5593" rx="10" transform="matrix(0.866025 0.5 -0.866025 0.5 226.322 165)" fill="white"/>
<rect x="-2.98023e-08" y="0.5" width="88.5668" height="88.5668" rx="19.5" transform="matrix(0.866025 0.5 -0.866025 0.5 147.243 176.25)" stroke="white"/>
<path d="M139.095 236.58L139.095 145.67L144.139 148.582L144.139 239.491L139.095 236.58ZM156.071 182.744C155.702 178.933 154.205 175.275 151.581 171.771C148.957 168.268 145.738 165.415 141.924 163.213C139.136 161.603 136.696 160.715 134.605 160.55C132.534 160.396 130.915 160.893 129.746 162.041C128.598 163.201 128.024 164.941 128.024 167.261C128.024 169.203 128.424 171.103 129.223 172.961C130.043 174.808 131.089 176.559 132.36 178.217C133.631 179.85 134.964 181.365 136.358 182.762C137.752 184.135 139.034 185.337 140.202 186.366L146.599 192.048C148.239 193.492 150.064 195.232 152.073 197.268C154.103 199.316 156.04 201.63 157.886 204.211C159.751 206.78 161.289 209.585 162.499 212.627C163.708 215.669 164.313 218.895 164.313 222.304C164.313 226.234 163.421 229.27 161.638 231.413C159.874 233.567 157.291 234.597 153.888 234.502C150.505 234.419 146.394 232.981 141.555 230.187C137.045 227.583 133.139 224.488 129.838 220.901C126.558 217.326 123.974 213.491 122.088 209.396C120.223 205.312 119.167 201.21 118.921 197.091L126.794 201.636C126.999 204.501 127.798 207.235 129.192 209.839C130.607 212.432 132.391 214.787 134.543 216.906C136.717 219.013 139.054 220.789 141.555 222.233C144.467 223.914 147.081 224.879 149.398 225.127C151.714 225.352 153.549 224.873 154.902 223.689C156.256 222.482 156.932 220.552 156.932 217.901C156.932 215.486 156.348 213.183 155.179 210.994C154.011 208.804 152.473 206.685 150.566 204.637C148.659 202.589 146.599 200.571 144.385 198.582L136.635 191.551C131.714 187.077 127.819 182.496 124.948 177.808C122.078 173.121 120.643 168.327 120.643 163.426C120.643 159.354 121.596 156.353 123.503 154.424C125.43 152.483 128.013 151.607 131.253 151.796C134.513 151.974 138.152 153.223 142.17 155.543C146.23 157.886 149.838 160.81 152.996 164.314C156.153 167.794 158.654 171.511 160.5 175.464C162.365 179.43 163.35 183.277 163.452 187.006L156.071 182.744Z" fill="url(#paint7_linear_33_1087)"/>
<path d="M136.095 235.58L135.229 235.08L135.229 236.08L136.095 236.58L136.095 235.58ZM136.095 144.67L136.095 143.67L135.229 143.17L135.229 144.17L136.095 144.67ZM141.139 147.582L142.005 148.082L142.005 147.082L141.139 146.582L141.139 147.582ZM141.139 238.491L141.139 239.491L142.005 239.991L142.005 238.991L141.139 238.491ZM153.071 181.744L152.211 181.365L152.302 182.3L153.071 182.744L153.071 181.744ZM148.581 170.771L148.106 171.333L148.106 171.333L148.581 170.771ZM131.605 159.55L131.262 158.433L131.259 158.433L131.605 159.55ZM126.746 161.041L126.05 160.044L126.046 160.049L126.746 161.041ZM126.223 171.961L125.501 172.095L125.505 172.106L125.51 172.117L126.223 171.961ZM129.36 177.217L128.899 177.797L128.907 177.808L129.36 177.217ZM133.358 181.762L133.059 182.528L133.07 182.539L133.358 181.762ZM137.202 185.366L137.427 184.531L137.423 184.527L137.202 185.366ZM143.599 191.048L143.374 191.884L143.379 191.889L143.599 191.048ZM149.073 196.268L148.767 197.027L148.77 197.03L149.073 196.268ZM154.886 203.211L154.384 203.736L154.393 203.749L154.886 203.211ZM159.499 211.627L160.243 211.545L160.243 211.545L159.499 211.627ZM158.638 230.413L157.911 229.449L157.909 229.452L158.638 230.413ZM150.888 233.502L150.515 232.384L150.514 232.384L150.888 233.502ZM126.838 219.901L126.487 220.613L126.489 220.615L126.838 219.901ZM119.088 208.396L118.384 208.572L118.387 208.577L119.088 208.396ZM115.921 196.091L115.921 195.091L114.991 194.554L115.057 195.663L115.921 196.091ZM123.794 200.636L124.656 201.049L124.588 200.095L123.794 199.636L123.794 200.636ZM126.192 208.839L125.547 209.134L125.555 209.149L126.192 208.839ZM131.543 215.906L131.256 216.683L131.265 216.692L131.543 215.906ZM146.398 224.127L146.724 225.242L146.73 225.242L146.398 224.127ZM151.902 222.689L152.58 223.703L152.583 223.7L151.902 222.689ZM152.179 209.994L152.826 209.702L152.826 209.702L152.179 209.994ZM147.566 203.637L147.224 204.358L147.224 204.358L147.566 203.637ZM141.385 197.582L141.147 198.407L141.153 198.412L141.385 197.582ZM133.635 190.551L133.395 191.374L133.397 191.375L133.635 190.551ZM121.948 176.808L121.364 177.209L121.364 177.209L121.948 176.808ZM120.503 153.424L119.803 152.431L119.802 152.432L120.503 153.424ZM128.253 150.796L128.608 151.913L128.61 151.913L128.253 150.796ZM149.996 163.314L149.633 164.013L149.637 164.017L149.996 163.314ZM157.5 174.464L156.803 174.656L156.805 174.662L157.5 174.464ZM160.452 186.006L160.452 187.006L161.346 187.522L161.318 186.473L160.452 186.006ZM136.961 236.08L136.961 145.17L135.229 144.17L135.229 235.08L136.961 236.08ZM136.095 145.67L141.139 148.582L141.139 146.582L136.095 143.67L136.095 145.67ZM140.273 147.082L140.273 237.991L142.005 238.991L142.005 148.082L140.273 147.082ZM141.139 237.491L136.095 234.58L136.095 236.58L141.139 239.491L141.139 237.491ZM153.931 182.123C153.532 178.001 151.894 173.999 149.056 170.21L148.106 171.333C150.516 174.551 151.872 177.865 152.211 181.365L153.931 182.123ZM149.056 170.21C146.263 166.48 142.87 163.491 138.924 161.213L138.924 163.213C142.606 165.338 145.651 168.055 148.106 171.333L149.056 170.21ZM138.924 161.213C136.044 159.55 133.483 158.609 131.262 158.433L131.948 160.666C133.91 160.821 136.228 161.656 138.924 163.213L138.924 161.213ZM131.259 158.433C129.07 158.271 127.322 158.795 126.05 160.044L127.442 162.038C128.508 160.991 129.998 160.521 131.951 160.666L131.259 158.433ZM126.046 160.049C124.786 161.321 124.158 163.237 124.158 165.761L125.89 166.761C125.89 164.646 126.409 163.082 127.446 162.034L126.046 160.049ZM124.158 165.761C124.158 167.867 124.593 169.986 125.501 172.095L126.946 171.827C126.254 170.219 125.89 168.539 125.89 166.761L124.158 165.761ZM125.51 172.117C126.4 174.12 127.532 176.015 128.899 177.797L129.821 176.636C128.645 175.104 127.687 173.495 126.936 171.805L125.51 172.117ZM128.907 177.808C130.227 179.504 131.611 181.077 133.059 182.528L133.657 180.996C132.316 179.653 131.035 178.197 129.813 176.625L128.907 177.808ZM133.07 182.539C134.482 183.929 135.786 185.152 136.982 186.206L137.423 184.527C136.281 183.521 135.023 182.341 133.646 180.985L133.07 182.539ZM136.977 186.202L143.374 191.884L143.824 190.213L137.427 184.531L136.977 186.202ZM143.379 191.889C144.984 193.301 146.779 195.013 148.767 197.027L149.379 195.51C147.349 193.452 145.495 191.683 143.819 190.208L143.379 191.889ZM148.77 197.03C150.726 199.004 152.597 201.238 154.384 203.736L155.387 202.686C153.484 200.023 151.48 197.629 149.376 195.507L148.77 197.03ZM154.393 203.749C156.152 206.171 157.606 208.82 158.755 211.71L160.243 211.545C158.972 208.35 157.35 205.388 155.379 202.673L154.393 203.749ZM158.755 211.71C159.867 214.506 160.447 217.531 160.447 220.804L162.179 221.804C162.179 218.259 161.55 214.832 160.243 211.545L158.755 211.71ZM160.447 220.804C160.447 224.549 159.6 227.42 157.911 229.449L159.364 231.377C161.242 229.12 162.179 225.919 162.179 221.804L160.447 220.804ZM157.909 229.452C156.246 231.484 153.796 232.476 150.515 232.384L151.26 234.62C154.786 234.718 157.503 233.65 159.366 231.374L157.909 229.452ZM150.514 232.384C147.276 232.305 143.301 230.927 138.555 228.187L138.555 230.187C143.487 233.035 147.733 234.534 151.262 234.62L150.514 232.384ZM138.555 228.187C134.136 225.636 130.355 222.629 127.188 219.188L126.489 220.615C129.924 224.347 133.954 227.531 138.555 230.187L138.555 228.187ZM127.189 219.19C124.032 215.749 121.576 212.093 119.79 208.214L118.387 208.577C120.373 212.89 123.083 216.904 126.487 220.613L127.189 219.19ZM119.792 208.22C118.027 204.356 117.02 200.462 116.784 196.518L115.057 195.663C115.313 199.958 116.418 204.268 118.384 208.572L119.792 208.22ZM115.921 197.091L123.794 201.636L123.794 199.636L115.921 195.091L115.921 197.091ZM122.931 200.224C123.149 203.28 124.01 206.264 125.547 209.134L126.838 208.545C125.586 206.207 124.848 203.721 124.656 201.049L122.931 200.224ZM125.555 209.149C127.074 211.933 128.982 214.445 131.256 216.683L131.831 215.129C129.8 213.129 128.14 210.931 126.83 208.53L125.555 209.149ZM131.265 216.692C133.536 218.894 135.968 220.739 138.555 222.233L138.555 220.233C136.14 218.839 133.898 217.133 131.822 215.12L131.265 216.692ZM138.555 222.233C141.561 223.968 144.288 224.98 146.724 225.242L146.071 223.012C143.873 222.777 141.373 221.86 138.555 220.233L138.555 222.233ZM146.73 225.242C149.161 225.478 151.123 224.978 152.58 223.703L151.225 221.675C149.976 222.768 148.268 223.226 146.065 223.012L146.73 225.242ZM152.583 223.7C154.063 222.38 154.798 220.264 154.798 217.401L153.066 216.401C153.066 218.84 152.449 220.583 151.222 221.678L152.583 223.7ZM154.798 217.401C154.798 214.79 154.162 212.205 152.826 209.702L151.533 210.285C152.534 212.162 153.066 214.182 153.066 216.401L154.798 217.401ZM152.826 209.702C151.559 207.328 149.911 205.066 147.908 202.916L147.224 204.358C149.035 206.303 150.462 208.279 151.533 210.285L152.826 209.702ZM147.908 202.916C145.962 200.826 143.864 198.772 141.616 196.753L141.153 198.412C143.333 200.37 145.357 202.353 147.224 204.358L147.908 202.916ZM141.623 196.758L133.873 189.727L133.397 191.375L141.147 198.407L141.623 196.758ZM133.874 189.728C129.043 185.335 125.278 180.891 122.533 176.408L121.364 177.209C124.359 182.1 128.385 186.818 133.395 191.374L133.874 189.728ZM122.533 176.408C119.859 172.042 118.509 167.575 118.509 162.926L116.777 161.926C116.777 167.079 118.297 172.2 121.364 177.209L122.533 176.408ZM118.509 162.926C118.509 159.046 119.414 156.227 121.204 154.416L119.802 152.432C117.779 154.48 116.777 157.662 116.777 161.926L118.509 162.926ZM121.203 154.417C123.034 152.573 125.494 151.731 128.608 151.913L127.898 149.679C124.533 149.482 121.826 150.393 119.803 152.431L121.203 154.417ZM128.61 151.913C131.745 152.084 135.26 153.285 139.17 155.543L139.17 153.543C135.044 151.16 131.281 149.863 127.896 149.679L128.61 151.913ZM139.17 155.543C143.126 157.826 146.607 160.655 149.633 164.013L150.358 162.615C147.07 158.966 143.334 155.947 139.17 153.543L139.17 155.543ZM149.637 164.017C152.676 167.367 155.055 170.911 156.803 174.656L158.197 174.273C156.254 170.111 153.63 166.221 150.354 162.61L149.637 164.017ZM156.805 174.662C158.563 178.398 159.49 182.013 159.586 185.538L161.318 186.473C161.209 182.541 160.168 178.462 158.194 174.267L156.805 174.662ZM160.452 185.006L153.071 180.744L153.071 182.744L160.452 187.006L160.452 185.006Z" fill="#00FFD4"/>
<rect width="8" height="8" transform="matrix(0.866025 0.5 -0.866025 0.5 71.9282 92)" fill="url(#paint8_linear_33_1087)"/>
<rect width="8" height="80" transform="matrix(0.866025 0.5 -2.20305e-08 1 65 96)" fill="url(#paint9_linear_33_1087)"/>
<rect width="8" height="80" transform="matrix(0.866025 -0.5 2.20305e-08 1 72 100)" fill="url(#paint10_linear_33_1087)"/>
<rect width="8" height="8" transform="matrix(0.866025 0.5 -0.866025 0.5 61.9282 113)" fill="url(#paint11_linear_33_1087)"/>
<rect width="8" height="65" transform="matrix(0.866025 0.5 -2.20305e-08 1 55 117)" fill="url(#paint12_linear_33_1087)"/>
<rect width="8" height="65" transform="matrix(0.866025 -0.5 2.20305e-08 1 62 121)" fill="url(#paint13_linear_33_1087)"/>
<rect width="8" height="8" transform="matrix(0.866025 0.5 -0.866025 0.5 51.9282 134)" fill="url(#paint14_linear_33_1087)"/>
<rect width="8" height="50" transform="matrix(0.866025 0.5 -2.20305e-08 1 45 138)" fill="url(#paint15_linear_33_1087)"/>
<rect width="8" height="50" transform="matrix(0.866025 -0.5 2.20305e-08 1 52 142)" fill="url(#paint16_linear_33_1087)"/>
<path opacity="0.5" d="M180 72H272.5L245.5 180H209.5L180 72Z" fill="url(#paint17_linear_33_1087)"/>
<circle r="15.9295" transform="matrix(0.866025 0.5 -0.866025 0.5 226.591 180.071)" fill="url(#paint18_linear_33_1087)"/>
<circle r="15.9295" transform="matrix(0.866025 0.5 -0.866025 0.5 226.81 176.929)" fill="#00FFD4"/>
<path d="M220.717 176.563C220.356 176.354 220.103 176.125 219.957 175.875C219.812 175.626 219.777 175.378 219.853 175.133C219.929 174.888 220.118 174.669 220.422 174.474L221.16 174.901C220.903 175.082 220.797 175.292 220.84 175.533C220.887 175.773 221.072 175.986 221.393 176.172C221.652 176.321 221.942 176.419 222.264 176.465C222.588 176.512 222.913 176.508 223.239 176.452C223.569 176.397 223.868 176.291 224.137 176.136C224.411 175.978 224.596 175.801 224.69 175.607C224.789 175.413 224.796 175.22 224.712 175.027C224.628 174.834 224.452 174.659 224.186 174.503C223.995 174.39 223.768 174.293 223.503 174.212C223.241 174.129 222.997 174.077 222.771 174.055L222.144 173.594L225.625 172.024L228.897 173.913L228.221 174.304L225.588 172.784L223.509 173.729L223.546 173.75C223.778 173.765 224.025 173.81 224.287 173.883C224.55 173.957 224.787 174.054 224.998 174.176C225.383 174.399 225.634 174.65 225.751 174.931C225.872 175.211 225.86 175.493 225.714 175.776C225.571 176.06 225.295 176.32 224.887 176.555C224.485 176.787 224.036 176.942 223.54 177.021C223.048 177.099 222.554 177.1 222.058 177.024C221.564 176.947 221.117 176.793 220.717 176.563ZM226.072 179.654C225.609 179.387 225.34 179.086 225.266 178.752C225.194 178.417 225.313 178.061 225.623 177.683C225.935 177.305 226.433 176.917 227.117 176.522C227.798 176.129 228.466 175.843 229.12 175.665C229.778 175.486 230.397 175.417 230.977 175.459C231.561 175.5 232.083 175.653 232.542 175.918C233.002 176.184 233.266 176.484 233.336 176.82C233.41 177.157 233.291 177.514 232.979 177.893C232.672 178.272 232.178 178.658 231.497 179.051C230.812 179.446 230.142 179.734 229.486 179.913C228.832 180.092 228.214 180.161 227.634 180.119C227.056 180.077 226.535 179.922 226.072 179.654ZM226.748 179.264C227.208 179.529 227.786 179.607 228.483 179.498C229.18 179.389 229.939 179.098 230.759 178.624C231.304 178.31 231.71 178.008 231.977 177.719C232.245 177.431 232.371 177.167 232.355 176.925C232.341 176.685 232.182 176.477 231.878 176.302C231.423 176.039 230.843 175.963 230.138 176.075C229.434 176.185 228.674 176.476 227.856 176.948C227.31 177.263 226.904 177.564 226.638 177.85C226.371 178.137 226.246 178.399 226.263 178.639C226.281 178.879 226.443 179.087 226.748 179.264Z" fill="#5E60CE"/>
<defs>
<linearGradient id="paint0_linear_33_1087" x1="148" y1="-26" x2="148" y2="381" gradientUnits="userSpaceOnUse">
<stop stop-color="#5E60CE"/>
<stop offset="0.461458" stop-color="#06DFC8" stop-opacity="0.4"/>
<stop offset="0.762634" stop-color="#ADE5F7" stop-opacity="0"/>
</linearGradient>
<linearGradient id="paint1_linear_33_1087" x1="-16.3939" y1="-14.5546" x2="120.246" y2="2.87392" gradientUnits="userSpaceOnUse">
<stop stop-color="#6930C3"/>
<stop offset="1" stop-color="#00FFD4"/>
</linearGradient>
<linearGradient id="paint2_linear_33_1087" x1="-16.3939" y1="-14.5546" x2="120.246" y2="2.87392" gradientUnits="userSpaceOnUse">
<stop stop-color="#6930C3"/>
<stop offset="1" stop-color="#00FFD4"/>
</linearGradient>
<linearGradient id="paint3_linear_33_1087" x1="-16.3939" y1="-14.5546" x2="120.246" y2="2.87392" gradientUnits="userSpaceOnUse">
<stop stop-color="#6930C3"/>
<stop offset="1" stop-color="#00FFD4"/>
</linearGradient>
<linearGradient id="paint4_linear_33_1087" x1="-16.3939" y1="-14.5546" x2="120.246" y2="2.87392" gradientUnits="userSpaceOnUse">
<stop stop-color="#6930C3"/>
<stop offset="1" stop-color="#00FFD4"/>
</linearGradient>
<linearGradient id="paint5_linear_33_1087" x1="-16.3939" y1="-14.5546" x2="120.246" y2="2.87392" gradientUnits="userSpaceOnUse">
<stop stop-color="#6930C3"/>
<stop offset="1" stop-color="#00FFD4"/>
</linearGradient>
<linearGradient id="paint6_linear_33_1087" x1="-16.3939" y1="-14.5546" x2="120.246" y2="2.87392" gradientUnits="userSpaceOnUse">
<stop stop-color="#6930C3"/>
<stop offset="1" stop-color="#00FFD4"/>
</linearGradient>
<linearGradient id="paint7_linear_33_1087" x1="94.5982" y1="82.8209" x2="267.064" y2="101.118" gradientUnits="userSpaceOnUse">
<stop stop-color="#6930C3"/>
<stop offset="1" stop-color="#00FFD4"/>
</linearGradient>
<linearGradient id="paint8_linear_33_1087" x1="-1.46429" y1="-1.3" x2="10.7402" y2="0.256695" gradientUnits="userSpaceOnUse">
<stop stop-color="#6930C3"/>
<stop offset="1" stop-color="#00FFD4"/>
</linearGradient>
<linearGradient id="paint9_linear_33_1087" x1="-1.46429" y1="-13" x2="10.9368" y2="-12.8418" gradientUnits="userSpaceOnUse">
<stop stop-color="#6930C3"/>
<stop offset="1" stop-color="#00FFD4"/>
</linearGradient>
<linearGradient id="paint10_linear_33_1087" x1="-30.0222" y1="6.38223" x2="18.9889" y2="-6.502" gradientUnits="userSpaceOnUse">
<stop stop-color="#00FFD4"/>
<stop offset="1" stop-color="#6930C3"/>
</linearGradient>
<linearGradient id="paint11_linear_33_1087" x1="-1.46429" y1="-1.3" x2="10.7402" y2="0.256695" gradientUnits="userSpaceOnUse">
<stop stop-color="#6930C3"/>
<stop offset="1" stop-color="#00FFD4"/>
</linearGradient>
<linearGradient id="paint12_linear_33_1087" x1="-1.46429" y1="-10.5625" x2="10.9357" y2="-10.3679" gradientUnits="userSpaceOnUse">
<stop stop-color="#6930C3"/>
<stop offset="1" stop-color="#00FFD4"/>
</linearGradient>
<linearGradient id="paint13_linear_33_1087" x1="-30.0222" y1="5.18556" x2="17.4105" y2="-10.1613" gradientUnits="userSpaceOnUse">
<stop stop-color="#00FFD4"/>
<stop offset="1" stop-color="#6930C3"/>
</linearGradient>
<linearGradient id="paint14_linear_33_1087" x1="-1.46429" y1="-1.3" x2="10.7402" y2="0.256695" gradientUnits="userSpaceOnUse">
<stop stop-color="#6930C3"/>
<stop offset="1" stop-color="#00FFD4"/>
</linearGradient>
<linearGradient id="paint15_linear_33_1087" x1="-1.46429" y1="-8.12501" x2="10.9336" y2="-7.87199" gradientUnits="userSpaceOnUse">
<stop stop-color="#6930C3"/>
<stop offset="1" stop-color="#00FFD4"/>
</linearGradient>
<linearGradient id="paint16_linear_33_1087" x1="-30.0222" y1="3.9889" x2="14.4993" y2="-14.7375" gradientUnits="userSpaceOnUse">
<stop stop-color="#00FFD4"/>
<stop offset="1" stop-color="#6930C3"/>
</linearGradient>
<linearGradient id="paint17_linear_33_1087" x1="226" y1="287.5" x2="226" y2="90.5" gradientUnits="userSpaceOnUse">
<stop offset="0.480551" stop-color="#5E60CE"/>
<stop offset="0.641723" stop-color="#3F95D0" stop-opacity="0.867681"/>
<stop offset="1" stop-color="#00FFD4" stop-opacity="0"/>
</linearGradient>
<linearGradient id="paint18_linear_33_1087" x1="-5.83133" y1="-5.17709" x2="42.7715" y2="1.02225" gradientUnits="userSpaceOnUse">
<stop stop-color="#6930C3"/>
<stop offset="1" stop-color="#00FFD4"/>
</linearGradient>
</defs>
</svg>
