<svg width="612" height="547" viewBox="0 0 612 547" fill="none" xmlns="http://www.w3.org/2000/svg">
<rect opacity="0.8" width="114.054" height="114.054" rx="10" transform="matrix(0.866025 0.5 -0.866025 0.5 98.7733 208.219)" fill="white"/>
<rect opacity="0.6" width="114.054" height="114.054" rx="10" transform="matrix(0.866025 0.5 -0.866025 0.5 98.7733 218.018)" fill="white"/>
<rect opacity="0.4" width="114.054" height="114.054" rx="10" transform="matrix(0.866025 0.5 -0.866025 0.5 98.7733 227.817)" fill="white"/>
<rect opacity="0.8" width="114.054" height="114.054" rx="10" transform="matrix(0.866025 0.5 -0.866025 0.5 498.065 208.219)" fill="white"/>
<rect opacity="0.6" width="114.054" height="114.054" rx="10" transform="matrix(0.866025 0.5 -0.866025 0.5 498.065 218.018)" fill="white"/>
<rect opacity="0.4" width="114.054" height="114.054" rx="10" transform="matrix(0.866025 0.5 -0.866025 0.5 498.065 227.817)" fill="white"/>
<rect opacity="0.4" x="-2.98023e-08" y="0.5" width="218.406" height="218.406" rx="19.5" transform="matrix(0.866025 0.5 -0.866025 0.5 303.128 327.622)" fill="url(#paint0_linear_35_8241)" stroke="url(#paint1_linear_35_8241)"/>
<rect opacity="0.6" x="-2.98023e-08" y="0.5" width="218.406" height="218.406" rx="19.5" transform="matrix(0.866025 0.5 -0.866025 0.5 303.128 307.102)" fill="url(#paint2_linear_35_8241)" stroke="url(#paint3_linear_35_8241)"/>
<rect opacity="0.8" x="-2.98023e-08" y="0.5" width="218.406" height="218.406" rx="19.5" transform="matrix(0.866025 0.5 -0.866025 0.5 303.128 278.69)" fill="url(#paint4_linear_35_8241)" stroke="url(#paint5_linear_35_8241)"/>
<rect x="-2.98023e-08" y="0.5" width="218.406" height="218.406" rx="19.5" transform="matrix(0.866025 0.5 -0.866025 0.5 303.724 255.013)" stroke="white"/>
<path d="M296.943 392.365L296.943 119.637L312.074 128.373L312.074 401.1L296.943 392.365ZM347.872 230.859C346.765 219.424 342.275 208.451 334.402 197.94C326.529 187.429 316.872 178.87 305.432 172.265C297.067 167.436 289.747 164.772 283.473 164.275C277.261 163.813 272.402 165.305 268.896 168.75C265.452 172.23 263.729 177.45 263.729 184.41C263.729 190.234 264.929 195.933 267.328 201.509C269.788 207.049 272.925 212.304 276.738 217.276C280.552 222.176 284.55 226.722 288.732 230.912C292.915 235.032 296.759 238.636 300.265 241.725L319.455 258.771C324.376 263.103 329.85 268.323 335.878 274.431C341.967 280.575 347.779 287.517 353.315 295.259C358.912 302.965 363.525 311.381 367.154 320.507C370.783 329.634 372.598 339.311 372.598 349.538C372.598 361.328 369.922 370.436 364.571 376.864C359.281 383.327 351.531 386.416 341.321 386.132C331.172 385.884 318.84 381.569 304.324 373.188C290.793 365.376 279.076 356.09 269.173 345.33C259.332 334.605 251.582 323.1 245.923 310.813C240.326 298.561 237.158 286.257 236.42 273.899L260.039 287.535C260.654 296.129 263.053 304.332 267.235 312.144C271.479 319.921 276.831 326.988 283.289 333.345C289.809 339.666 296.82 344.992 304.324 349.325C313.058 354.367 320.901 357.262 327.851 358.007C334.801 358.682 340.306 357.244 344.366 353.693C348.425 350.071 350.455 344.282 350.455 336.328C350.455 329.083 348.702 322.176 345.196 315.607C341.69 309.037 337.077 302.681 331.357 296.537C325.637 290.394 319.455 284.339 312.812 278.373L289.563 257.279C274.801 243.856 263.114 230.113 254.503 216.051C245.892 201.988 241.587 187.606 241.587 172.904C241.587 160.688 244.447 151.686 250.167 145.898C255.949 140.074 263.699 137.446 273.417 138.014C283.197 138.547 294.114 142.294 306.17 149.254C318.348 156.285 329.173 165.056 338.646 175.568C348.118 186.008 355.622 197.159 361.157 209.019C366.754 220.916 369.707 232.457 370.014 243.643L347.872 230.859Z" fill="url(#paint6_linear_35_8241)"/>
<path d="M287.943 392.365L287.077 391.865L287.077 392.865L287.943 393.365L287.943 392.365ZM287.943 119.637L287.943 118.637L287.077 118.137L287.077 119.137L287.943 119.637ZM303.074 128.373L303.94 128.873L303.94 127.873L303.074 127.373L303.074 128.373ZM303.074 401.1L303.074 402.1L303.94 402.6L303.94 401.6L303.074 401.1ZM338.872 230.859L338.012 230.48L338.102 231.415L338.872 231.859L338.872 230.859ZM325.402 197.94L324.926 198.502L324.926 198.502L325.402 197.94ZM274.473 164.275L274.13 163.159L274.127 163.159L274.473 164.275ZM259.896 168.75L259.2 167.753L259.196 167.757L259.896 168.75ZM258.328 201.509L257.605 201.643L257.61 201.654L257.615 201.665L258.328 201.509ZM267.738 217.276L267.277 217.856L267.286 217.867L267.738 217.276ZM279.732 230.912L279.433 231.678L279.444 231.689L279.732 230.912ZM291.265 241.725L291.49 240.89L291.485 240.886L291.265 241.725ZM310.455 258.771L310.23 259.607L310.235 259.611L310.455 258.771ZM326.878 274.431L326.572 275.19L326.575 275.193L326.878 274.431ZM344.315 295.259L343.813 295.784L343.822 295.796L344.315 295.259ZM358.154 320.507L358.898 320.425L358.898 320.425L358.154 320.507ZM355.571 376.864L354.845 375.9L354.842 375.903L355.571 376.864ZM332.321 386.132L331.949 385.015L331.947 385.015L332.321 386.132ZM260.173 345.33L259.822 346.041L259.823 346.043L260.173 345.33ZM236.923 310.813L236.219 310.989L236.222 310.995L236.923 310.813ZM227.42 273.899L227.42 272.899L226.49 272.362L226.556 273.471L227.42 273.899ZM251.039 287.535L251.902 287.947L251.834 286.994L251.039 286.535L251.039 287.535ZM258.235 312.144L257.59 312.439L257.598 312.454L258.235 312.144ZM274.289 333.345L274.001 334.122L274.01 334.131L274.289 333.345ZM318.851 358.007L319.178 359.122L319.184 359.123L318.851 358.007ZM335.366 353.693L336.044 354.706L336.047 354.704L335.366 353.693ZM336.196 315.607L336.843 315.315L336.843 315.315L336.196 315.607ZM322.357 296.537L322.015 297.258L322.015 297.258L322.357 296.537ZM303.812 278.373L303.574 279.197L303.581 279.203L303.812 278.373ZM280.563 257.279L280.323 258.102L280.325 258.104L280.563 257.279ZM245.503 216.051L244.919 216.451L244.919 216.451L245.503 216.051ZM241.167 145.898L240.467 144.905L240.466 144.906L241.167 145.898ZM264.417 138.014L264.772 139.132L264.774 139.132L264.417 138.014ZM329.646 175.568L329.283 176.267L329.287 176.271L329.646 175.568ZM352.157 209.019L351.46 209.211L351.463 209.217L352.157 209.019ZM361.014 243.643L361.014 244.643L361.909 245.159L361.88 244.111L361.014 243.643ZM288.81 392.865L288.81 120.137L287.077 119.137L287.077 391.865L288.81 392.865ZM287.943 120.637L303.074 129.373L303.074 127.373L287.943 118.637L287.943 120.637ZM302.208 127.873L302.208 400.6L303.94 401.6L303.94 128.873L302.208 127.873ZM303.074 400.1L287.943 391.365L287.943 393.365L303.074 402.1L303.074 400.1ZM339.732 231.238C338.594 219.492 333.963 208.175 325.877 197.378L324.926 198.502C332.586 208.727 336.935 219.356 338.012 230.48L339.732 231.238ZM325.877 197.378C317.835 186.641 308.004 177.947 296.432 171.265L296.432 173.265C307.74 179.794 317.222 188.216 324.926 198.502L325.877 197.378ZM296.432 171.265C287.974 166.382 280.534 163.666 274.13 163.159L274.816 165.391C280.96 165.878 288.159 168.489 296.432 173.265L296.432 171.265ZM274.127 163.159C267.797 162.688 262.809 164.207 259.2 167.753L260.592 169.746C263.995 166.403 268.725 164.939 274.819 165.392L274.127 163.159ZM259.196 167.757C255.64 171.349 253.863 176.745 253.863 183.91L255.595 184.91C255.595 178.155 257.263 173.11 260.596 169.742L259.196 167.757ZM253.863 183.91C253.863 189.898 255.099 195.817 257.605 201.643L259.05 201.374C256.759 196.05 255.595 190.57 255.595 184.91L253.863 183.91ZM257.615 201.665C260.144 207.361 263.368 212.76 267.277 217.856L268.199 216.696C264.481 211.848 261.432 206.736 259.041 201.353L257.615 201.665ZM267.286 217.867C271.148 222.83 275.197 227.434 279.433 231.678L280.031 230.146C275.902 226.01 271.956 221.523 268.191 216.685L267.286 217.867ZM279.444 231.689C283.644 235.825 287.511 239.452 291.044 242.565L291.485 240.886C288.007 237.82 284.185 234.238 280.02 230.136L279.444 231.689ZM291.04 242.561L310.23 259.606L310.68 257.935L291.49 240.89L291.04 242.561ZM310.235 259.611C315.12 263.912 320.565 269.104 326.572 275.19L327.184 273.672C321.135 267.543 315.631 262.294 310.675 257.931L310.235 259.611ZM326.575 275.193C332.59 281.262 338.336 288.124 343.813 295.784L344.817 294.734C339.223 286.91 333.344 279.887 327.181 273.67L326.575 275.193ZM343.822 295.796C349.313 303.356 353.842 311.616 357.41 320.59L358.898 320.425C355.208 311.146 350.511 302.573 344.808 294.721L343.822 295.796ZM357.41 320.59C360.942 329.471 362.732 338.946 362.732 349.038L364.464 350.038C364.464 339.675 362.625 329.797 358.898 320.425L357.41 320.59ZM362.732 349.038C362.732 360.642 360.101 369.586 354.845 375.9L356.297 377.828C361.743 371.286 364.464 362.013 364.464 350.038L362.732 349.038ZM354.842 375.903C349.653 382.244 342.036 385.295 331.949 385.015L332.693 387.25C343.026 387.538 350.91 384.41 356.3 377.825L354.842 375.903ZM331.947 385.015C321.944 384.769 309.747 380.515 295.324 372.188L295.324 374.188C309.933 382.623 322.401 386.998 332.695 387.25L331.947 385.015ZM295.324 372.188C281.884 364.429 270.291 355.231 260.522 344.617L259.823 346.043C269.86 356.949 281.702 366.323 295.324 374.188L295.324 372.188ZM260.524 344.619C250.806 334.028 243.183 322.701 237.624 310.631L236.222 310.995C241.98 323.498 249.857 335.183 259.822 346.041L260.524 344.619ZM237.627 310.637C232.13 298.605 229.012 286.509 228.284 274.326L226.556 273.471C227.305 286.004 230.521 298.518 236.219 310.989L237.627 310.637ZM227.42 274.899L251.039 288.535L251.039 286.535L227.42 272.899L227.42 274.899ZM250.176 287.123C250.805 295.908 253.265 304.36 257.59 312.439L258.881 311.85C254.841 304.304 252.503 296.349 251.902 287.947L250.176 287.123ZM257.598 312.454C261.947 320.422 267.422 327.646 274.001 334.122L274.577 332.568C268.239 326.33 263.012 319.421 258.873 311.835L257.598 312.454ZM274.01 334.131C280.628 340.546 287.734 345.943 295.324 350.325L295.324 348.325C287.907 344.042 280.99 338.785 274.567 332.559L274.01 334.131ZM295.324 350.325C304.152 355.422 312.108 358.364 319.178 359.122L318.524 356.893C311.693 356.16 303.965 353.313 295.324 348.325L295.324 350.325ZM319.184 359.123C326.248 359.809 331.88 358.349 336.044 354.706L334.688 352.679C330.733 356.139 325.355 357.556 318.518 356.892L319.184 359.123ZM336.047 354.704C340.232 350.969 342.321 344.995 342.321 336.828L340.589 335.828C340.589 343.57 338.618 349.172 334.685 352.682L336.047 354.704ZM342.321 336.828C342.321 329.387 340.516 322.198 336.843 315.315L335.549 315.899C338.888 322.155 340.589 328.779 340.589 335.828L342.321 336.828ZM336.843 315.315C333.239 308.562 328.515 302.062 322.699 295.816L322.015 297.258C327.639 303.299 332.142 309.513 335.549 315.899L336.843 315.315ZM322.699 295.816C316.939 289.63 310.721 283.54 304.044 277.543L303.581 279.203C310.19 285.138 316.334 291.157 322.015 297.258L322.699 295.816ZM304.05 277.549L280.801 256.455L280.325 258.104L303.575 279.197L304.05 277.549ZM280.802 256.456C266.129 243.114 254.574 229.509 246.088 215.65L244.919 216.451C253.655 230.717 265.472 244.598 280.323 258.102L280.802 256.456ZM246.088 215.65C237.674 201.909 233.453 187.854 233.453 173.404L231.721 172.404C231.721 187.358 236.111 202.067 244.919 216.451L246.088 215.65ZM233.453 173.404C233.453 161.38 236.264 152.56 241.868 146.89L240.466 144.906C234.629 150.812 231.721 159.997 231.721 172.404L233.453 173.404ZM241.867 146.891C247.553 141.164 255.179 138.571 264.772 139.132L264.062 136.897C254.218 136.322 246.345 138.984 240.467 144.905L241.867 146.891ZM264.774 139.132C274.429 139.658 285.222 143.356 297.17 150.254L297.17 148.254C285.006 141.231 273.965 137.437 264.06 136.897L264.774 139.132ZM297.17 150.254C309.244 157.225 319.942 165.901 329.283 176.267L330.008 174.869C320.405 164.212 309.452 155.345 297.17 148.254L297.17 150.254ZM329.287 176.271C338.641 186.581 346.022 197.559 351.46 209.211L352.854 208.828C347.221 196.759 339.595 185.435 330.004 174.864L329.287 176.271ZM351.463 209.217C356.952 220.883 359.847 232.193 360.149 243.176L361.88 244.111C361.567 232.721 358.557 220.948 352.851 208.822L351.463 209.217ZM361.014 242.643L338.872 229.859L338.872 231.859L361.014 244.643L361.014 242.643Z" fill="#00FFD4"/>
<rect width="19.5971" height="19.5971" transform="matrix(0.866025 0.5 -0.866025 0.5 119.857 48.9928)" fill="url(#paint7_linear_35_8241)"/>
<rect width="19.5971" height="195.971" transform="matrix(0.866025 0.5 -2.20305e-08 1 102.885 58.7914)" fill="url(#paint8_linear_35_8241)"/>
<rect width="19.5971" height="195.971" transform="matrix(0.866025 -0.5 2.20305e-08 1 120.032 68.5898)" fill="url(#paint9_linear_35_8241)"/>
<rect width="19.5971" height="19.5971" transform="matrix(0.866025 0.5 -0.866025 0.5 95.3602 100.435)" fill="url(#paint10_linear_35_8241)"/>
<rect width="19.5971" height="159.227" transform="matrix(0.866025 0.5 -2.20305e-08 1 78.3885 110.234)" fill="url(#paint11_linear_35_8241)"/>
<rect width="19.5971" height="159.227" transform="matrix(0.866025 -0.5 2.20305e-08 1 95.536 120.032)" fill="url(#paint12_linear_35_8241)"/>
<rect width="19.5971" height="19.5971" transform="matrix(0.866025 0.5 -0.866025 0.5 70.8639 151.878)" fill="url(#paint13_linear_35_8241)"/>
<rect width="19.5971" height="122.482" transform="matrix(0.866025 0.5 -2.20305e-08 1 53.8922 161.676)" fill="url(#paint14_linear_35_8241)"/>
<rect width="19.5971" height="122.482" transform="matrix(0.866025 -0.5 2.20305e-08 1 71.0398 171.475)" fill="url(#paint15_linear_35_8241)"/>
<path opacity="0.5" d="M384.594 0H611.185L545.045 264.561H456.858L384.594 0Z" fill="url(#paint16_linear_35_8241)"/>
<circle r="39.0215" transform="matrix(0.866025 0.5 -0.866025 0.5 498.724 264.734)" fill="url(#paint17_linear_35_8241)"/>
<circle r="39.0215" transform="matrix(0.866025 0.5 -0.866025 0.5 499.26 257.04)" fill="#00FFD4"/>
<path d="M481.83 259.252C480.747 258.627 479.988 257.94 479.551 257.191C479.114 256.441 479.01 255.699 479.237 254.964C479.465 254.229 480.034 253.57 480.944 252.988L483.158 254.266C482.389 254.81 482.07 255.442 482.199 256.163C482.34 256.884 482.894 257.523 483.859 258.08C484.634 258.528 485.505 258.821 486.47 258.959C487.442 259.101 488.417 259.089 489.395 258.922C490.385 258.755 491.283 258.439 492.089 257.974C492.913 257.498 493.467 256.969 493.75 256.386C494.045 255.804 494.067 255.223 493.814 254.645C493.562 254.066 493.036 253.542 492.237 253.073C491.665 252.736 490.982 252.445 490.189 252.2C489.401 251.951 488.669 251.795 487.993 251.731L486.111 250.346L496.555 245.637L506.371 251.305L504.341 252.477L496.444 247.917L490.207 250.751L490.318 250.815C491.013 250.861 491.754 250.994 492.541 251.214C493.329 251.434 494.039 251.727 494.673 252.093C495.829 252.761 496.582 253.515 496.933 254.357C497.296 255.199 497.259 256.044 496.822 256.892C496.392 257.745 495.564 258.524 494.34 259.231C493.135 259.927 491.788 260.392 490.299 260.626C488.823 260.861 487.341 260.864 485.852 260.637C484.37 260.406 483.029 259.945 481.83 259.252ZM497.895 268.527C496.505 267.725 495.699 266.823 495.477 265.821C495.262 264.816 495.619 263.747 496.548 262.615C497.483 261.478 498.977 260.317 501.032 259.131C503.074 257.952 505.076 257.094 507.038 256.558C509.012 256.022 510.87 255.816 512.61 255.94C514.363 256.065 515.929 256.524 517.307 257.32C518.684 258.115 519.478 259.017 519.687 260.026C519.908 261.034 519.552 262.107 518.617 263.243C517.694 264.38 516.212 265.537 514.17 266.716C512.115 267.902 510.104 268.765 508.136 269.305C506.174 269.841 504.322 270.047 502.582 269.923C500.847 269.795 499.285 269.33 497.895 268.527ZM499.924 267.355C501.302 268.151 503.037 268.385 505.128 268.059C507.219 267.732 509.495 266.858 511.955 265.438C513.591 264.493 514.809 263.588 515.609 262.721C516.415 261.858 516.793 261.065 516.744 260.34C516.701 259.619 516.224 258.996 515.314 258.471C513.948 257.682 512.208 257.455 510.092 257.789C507.982 258.119 505.7 258.993 503.246 260.409C501.61 261.354 500.392 262.256 499.592 263.115C498.793 263.975 498.418 264.763 498.467 265.48C498.522 266.201 499.008 266.826 499.924 267.355Z" fill="#5E60CE"/>
<defs>
<linearGradient id="paint0_linear_35_8241" x1="-40.1592" y1="-35.6536" x2="294.559" y2="7.04007" gradientUnits="userSpaceOnUse">
<stop stop-color="#6930C3"/>
<stop offset="1" stop-color="#00FFD4"/>
</linearGradient>
<linearGradient id="paint1_linear_35_8241" x1="-40.1592" y1="-35.6536" x2="294.559" y2="7.04007" gradientUnits="userSpaceOnUse">
<stop stop-color="#6930C3"/>
<stop offset="1" stop-color="#00FFD4"/>
</linearGradient>
<linearGradient id="paint2_linear_35_8241" x1="-40.1592" y1="-35.6536" x2="294.559" y2="7.04007" gradientUnits="userSpaceOnUse">
<stop stop-color="#6930C3"/>
<stop offset="1" stop-color="#00FFD4"/>
</linearGradient>
<linearGradient id="paint3_linear_35_8241" x1="-40.1592" y1="-35.6536" x2="294.559" y2="7.04007" gradientUnits="userSpaceOnUse">
<stop stop-color="#6930C3"/>
<stop offset="1" stop-color="#00FFD4"/>
</linearGradient>
<linearGradient id="paint4_linear_35_8241" x1="-40.1592" y1="-35.6536" x2="294.559" y2="7.04007" gradientUnits="userSpaceOnUse">
<stop stop-color="#6930C3"/>
<stop offset="1" stop-color="#00FFD4"/>
</linearGradient>
<linearGradient id="paint5_linear_35_8241" x1="-40.1592" y1="-35.6536" x2="294.559" y2="7.04007" gradientUnits="userSpaceOnUse">
<stop stop-color="#6930C3"/>
<stop offset="1" stop-color="#00FFD4"/>
</linearGradient>
<linearGradient id="paint6_linear_35_8241" x1="174.131" y1="-52.9447" x2="595.952" y2="-10.1286" gradientUnits="userSpaceOnUse">
<stop stop-color="#6930C3"/>
<stop offset="1" stop-color="#00FFD4"/>
</linearGradient>
<linearGradient id="paint7_linear_35_8241" x1="-3.58697" y1="-3.18454" x2="26.3097" y2="0.62881" gradientUnits="userSpaceOnUse">
<stop stop-color="#6930C3"/>
<stop offset="1" stop-color="#00FFD4"/>
</linearGradient>
<linearGradient id="paint8_linear_35_8241" x1="-3.58697" y1="-31.8454" x2="26.7911" y2="-31.4579" gradientUnits="userSpaceOnUse">
<stop stop-color="#6930C3"/>
<stop offset="1" stop-color="#00FFD4"/>
</linearGradient>
<linearGradient id="paint9_linear_35_8241" x1="-73.5436" y1="15.6342" x2="46.5159" y2="-15.9276" gradientUnits="userSpaceOnUse">
<stop stop-color="#00FFD4"/>
<stop offset="1" stop-color="#6930C3"/>
</linearGradient>
<linearGradient id="paint10_linear_35_8241" x1="-3.58697" y1="-3.18454" x2="26.3097" y2="0.62881" gradientUnits="userSpaceOnUse">
<stop stop-color="#6930C3"/>
<stop offset="1" stop-color="#00FFD4"/>
</linearGradient>
<linearGradient id="paint11_linear_35_8241" x1="-3.58697" y1="-25.8744" x2="26.7886" y2="-25.3975" gradientUnits="userSpaceOnUse">
<stop stop-color="#6930C3"/>
<stop offset="1" stop-color="#00FFD4"/>
</linearGradient>
<linearGradient id="paint12_linear_35_8241" x1="-73.5436" y1="12.7028" x2="42.6494" y2="-24.8914" gradientUnits="userSpaceOnUse">
<stop stop-color="#00FFD4"/>
<stop offset="1" stop-color="#6930C3"/>
</linearGradient>
<linearGradient id="paint13_linear_35_8241" x1="-3.58697" y1="-3.18454" x2="26.3097" y2="0.62881" gradientUnits="userSpaceOnUse">
<stop stop-color="#6930C3"/>
<stop offset="1" stop-color="#00FFD4"/>
</linearGradient>
<linearGradient id="paint14_linear_35_8241" x1="-3.58697" y1="-19.9034" x2="26.7834" y2="-19.2836" gradientUnits="userSpaceOnUse">
<stop stop-color="#6930C3"/>
<stop offset="1" stop-color="#00FFD4"/>
</linearGradient>
<linearGradient id="paint15_linear_35_8241" x1="-73.5436" y1="9.77136" x2="35.5182" y2="-36.1016" gradientUnits="userSpaceOnUse">
<stop stop-color="#00FFD4"/>
<stop offset="1" stop-color="#6930C3"/>
</linearGradient>
<linearGradient id="paint16_linear_35_8241" x1="497.277" y1="527.897" x2="497.277" y2="45.3183" gradientUnits="userSpaceOnUse">
<stop offset="0.480551" stop-color="#5E60CE"/>
<stop offset="0.641723" stop-color="#3F95D0" stop-opacity="0.867681"/>
<stop offset="1" stop-color="#00FFD4" stop-opacity="0"/>
</linearGradient>
<linearGradient id="paint17_linear_35_8241" x1="-14.2847" y1="-12.682" x2="104.775" y2="2.50416" gradientUnits="userSpaceOnUse">
<stop stop-color="#6930C3"/>
<stop offset="1" stop-color="#00FFD4"/>
</linearGradient>
</defs>
</svg>
