<svg width="77" height="24" viewBox="0 0 77 24" fill="none" xmlns="http://www.w3.org/2000/svg">
<path d="M11.2637 15.8308V18.8187H2.54916V15.8308H11.2637ZM3.86523 1.55558V18.8187H0V1.55558H3.86523Z" fill="white"/>
<path d="M12.4375 12.5347V12.2857C12.4375 11.3451 12.5719 10.4796 12.8406 9.68916C13.1094 8.89082 13.5046 8.19919 14.0263 7.61427C14.548 7.02935 15.1882 6.57485 15.947 6.25077C16.7059 5.91878 17.5753 5.75279 18.5555 5.75279C19.5514 5.75279 20.4288 5.91878 21.1876 6.25077C21.9544 6.57485 22.5986 7.02935 23.1202 7.61427C23.6419 8.19919 24.0371 8.89082 24.3059 9.68916C24.5746 10.4796 24.709 11.3451 24.709 12.2857V12.5347C24.709 13.4674 24.5746 14.333 24.3059 15.1313C24.0371 15.9217 23.6419 16.6134 23.1202 17.2062C22.5986 17.7911 21.9583 18.2456 21.1995 18.5697C20.4407 18.8938 19.5672 19.0558 18.5792 19.0558C17.5991 19.0558 16.7256 18.8938 15.9589 18.5697C15.1922 18.2456 14.548 17.7911 14.0263 17.2062C13.5046 16.6134 13.1094 15.9217 12.8406 15.1313C12.5719 14.333 12.4375 13.4674 12.4375 12.5347ZM16.1486 12.2857V12.5347C16.1486 13.0406 16.1881 13.5149 16.2672 13.9575C16.3541 14.4002 16.4924 14.7875 16.6821 15.1195C16.8719 15.4514 17.1208 15.7123 17.4291 15.902C17.7453 16.0838 18.1286 16.1747 18.5792 16.1747C19.0297 16.1747 19.4091 16.0838 19.7174 15.902C20.0257 15.7123 20.2747 15.4514 20.4644 15.1195C20.6541 14.7875 20.7885 14.4002 20.8675 13.9575C20.9545 13.5149 20.9979 13.0406 20.9979 12.5347V12.2857C20.9979 11.7878 20.9545 11.3214 20.8675 10.8867C20.7885 10.444 20.6541 10.0528 20.4644 9.71288C20.2747 9.37299 20.0217 9.10819 19.7056 8.91849C19.3973 8.72878 19.0139 8.63393 18.5555 8.63393C18.1128 8.63393 17.7374 8.72878 17.4291 8.91849C17.1208 9.10819 16.8719 9.37299 16.6821 9.71288C16.4924 10.0528 16.3541 10.444 16.2672 10.8867C16.1881 11.3214 16.1486 11.7878 16.1486 12.2857Z" fill="white"/>
<path d="M48.4221 8.72878V18.8187H44.711V5.98992H48.1968L48.4221 8.72878ZM47.936 11.9538L47.0112 11.9775C47.0112 11.0131 47.1297 10.1476 47.3669 9.38089C47.604 8.61417 47.9399 7.96206 48.3747 7.42456C48.8173 6.87916 49.3429 6.46418 49.9516 6.17963C50.5681 5.89507 51.2479 5.75279 51.9909 5.75279C52.5916 5.75279 53.141 5.83974 53.639 6.01364C54.1369 6.18753 54.5638 6.46814 54.9195 6.85545C55.2831 7.23486 55.5597 7.74074 55.7494 8.37309C55.9391 8.99753 56.034 9.76821 56.034 10.6851V18.8187H52.311V10.6733C52.311 10.1358 52.2359 9.72078 52.0858 9.42832C51.9356 9.13586 51.7143 8.93034 51.4218 8.81178C51.1372 8.69321 50.7894 8.63393 50.3784 8.63393C49.9437 8.63393 49.5722 8.72088 49.2639 8.89477C48.9556 9.06077 48.7027 9.29394 48.5051 9.59431C48.3075 9.89468 48.1612 10.2464 48.0664 10.6495C47.9794 11.0527 47.936 11.4874 47.936 11.9538Z" fill="white"/>
<path d="M62.3535 0.607056V18.8187H58.6424V0.607056H62.3535Z" fill="white"/>
<path d="M68.8865 17.3366L72.2419 5.98992H76.2257L71.0681 20.7395C70.9574 21.0635 70.8072 21.4113 70.6175 21.7828C70.4357 22.1543 70.1867 22.51 69.8706 22.8499C69.5623 23.1898 69.1671 23.4665 68.6849 23.6799C68.2027 23.8933 67.6099 24 66.9064 24C66.5507 24 66.2741 23.9802 66.0765 23.9407C65.8868 23.9091 65.6338 23.8538 65.3177 23.7747L65.3058 21.0833C65.4086 21.0833 65.4995 21.0833 65.5785 21.0833C65.6654 21.0912 65.7524 21.0951 65.8393 21.0951C66.282 21.0951 66.6377 21.0477 66.9064 20.9529C67.1831 20.858 67.3965 20.7157 67.5467 20.526C67.7048 20.3442 67.8312 20.1111 67.9261 19.8265L68.8865 17.3366ZM67.7601 5.98992L70.416 15.1195L70.8665 19.044L68.3648 19.1744L63.7763 5.98992H67.7601Z" fill="white"/>
<path fill-rule="evenodd" clip-rule="evenodd" d="M33.2733 0.296337C33.6684 -0.098779 34.309 -0.098779 34.7042 0.296337L40.977 6.56923C41.1668 6.75898 41.2734 7.01632 41.2734 7.28466V18.0093C41.2734 18.5681 40.8204 19.021 40.2616 19.021C39.7028 19.021 39.2499 18.5681 39.2499 18.0093V7.70374L33.9887 2.4426L28.4313 8.00008L27.0004 6.56923L33.2733 0.296337Z" fill="white"/>
<path fill-rule="evenodd" clip-rule="evenodd" d="M34.7042 0.296337C34.309 -0.098779 33.6684 -0.098779 33.2733 0.296337L27.0004 6.56923C26.8107 6.75898 26.7041 7.01632 26.7041 7.28466V18.0093C26.7041 18.5681 27.1571 19.021 27.7158 19.021C28.2746 19.021 28.7276 18.5681 28.7276 18.0093V7.70374L33.9887 2.4426L39.5462 8.00008L40.9771 6.56923L34.7042 0.296337Z" fill="white"/>
<path d="M37.4287 2.22588C37.4287 1.77886 37.7911 1.41647 38.2381 1.41647C38.6851 1.41647 39.0475 1.77886 39.0475 2.22588V4.6541C39.0475 5.10112 38.6851 5.4635 38.2381 5.4635C37.7911 5.4635 37.4287 5.10112 37.4287 4.6541V2.22588Z" fill="white"/>
<path d="M30.9535 14.3669C30.9535 13.6964 31.497 13.1528 32.1676 13.1528H32.977C33.6475 13.1528 34.1911 13.6964 34.1911 14.3669V17.1999C34.1911 17.8704 33.6475 18.414 32.977 18.414H32.1676C31.497 18.414 30.9535 17.8704 30.9535 17.1999V14.3669Z" fill="white"/>
</svg>
