<svg width="448" height="141" viewBox="0 0 448 141" fill="none" xmlns="http://www.w3.org/2000/svg">
<path d="M66.1743 93.0063V110.56H14.9763V93.0063H66.1743ZM22.7082 9.13916V110.56H0V9.13916H22.7082Z" fill="#271F7F"/>
<path d="M73.0703 73.6417V72.1789C73.0703 66.6527 73.8598 61.5678 75.4387 56.9239C77.0176 52.2337 79.3395 48.1704 82.4044 44.7339C85.4693 41.2975 89.2308 38.6273 93.6888 36.7234C98.1469 34.773 103.255 33.7978 109.013 33.7978C114.865 33.7978 120.019 34.773 124.477 36.7234C128.982 38.6273 132.766 41.2975 135.831 44.7339C138.896 48.1704 141.218 52.2337 142.797 56.9239C144.376 61.5678 145.165 66.6527 145.165 72.1789V73.6417C145.165 79.1213 144.376 84.2063 142.797 88.8966C141.218 93.5404 138.896 97.6037 135.831 101.087C132.766 104.523 129.005 107.193 124.547 109.097C120.089 111.001 114.957 111.953 109.153 111.953C103.394 111.953 98.263 111.001 93.7585 109.097C89.254 107.193 85.4693 104.523 82.4044 101.087C79.3395 97.6037 77.0176 93.5404 75.4387 88.8966C73.8598 84.2063 73.0703 79.1213 73.0703 73.6417ZM94.873 72.1789V73.6417C94.873 76.6137 95.1052 79.4 95.5696 82.0005C96.0804 84.601 96.8931 86.8765 98.0076 88.8269C99.1221 90.7773 100.585 92.3098 102.396 93.4243C104.253 94.4924 106.506 95.0264 109.153 95.0264C111.8 95.0264 114.029 94.4924 115.84 93.4243C117.651 92.3098 119.114 90.7773 120.228 88.8269C121.343 86.8765 122.132 84.601 122.597 82.0005C123.107 79.4 123.363 76.6137 123.363 73.6417V72.1789C123.363 69.2533 123.107 66.5134 122.597 63.9593C122.132 61.3588 121.343 59.0601 120.228 57.0633C119.114 55.0664 117.628 53.5107 115.77 52.3962C113.959 51.2817 111.707 50.7245 109.013 50.7245C106.413 50.7245 104.207 51.2817 102.396 52.3962C100.585 53.5107 99.1221 55.0664 98.0076 57.0633C96.8931 59.0601 96.0804 61.3588 95.5696 63.9593C95.1052 66.5134 94.873 69.2533 94.873 72.1789Z" fill="#271F7F"/>
<path d="M284.48 51.2817V110.56H262.677V35.1909H283.156L284.48 51.2817ZM281.624 70.2285L276.19 70.3678C276.19 64.7023 276.887 59.6174 278.28 55.1129C279.673 50.6084 281.647 46.7772 284.201 43.6194C286.802 40.4152 289.89 37.9772 293.465 36.3054C297.088 34.6337 301.081 33.7978 305.446 33.7978C308.976 33.7978 312.203 34.3086 315.129 35.3302C318.054 36.3519 320.562 38.0004 322.652 40.2759C324.788 42.5049 326.413 45.477 327.528 49.192C328.642 52.8606 329.2 57.3883 329.2 62.7751V110.56H307.327V62.7055C307.327 59.5477 306.886 57.1097 306.004 55.3915C305.121 53.6733 303.821 52.4659 302.103 51.7693C300.431 51.0727 298.388 50.7245 295.973 50.7245C293.419 50.7245 291.236 51.2353 289.425 52.2569C287.614 53.2321 286.128 54.602 284.967 56.3667C283.806 58.1313 282.947 60.1978 282.39 62.5662C281.879 64.9345 281.624 67.4886 281.624 70.2285Z" fill="#271F7F"/>
<path d="M366.327 3.56659V110.56H344.524V3.56659H366.327Z" fill="#271F7F"/>
<path d="M404.708 101.853L424.421 35.1909H447.826L417.525 121.844C416.875 123.748 415.992 125.792 414.878 127.974C413.81 130.157 412.347 132.247 410.489 134.243C408.678 136.24 406.356 137.866 403.524 139.119C400.691 140.373 397.208 141 393.075 141C390.985 141 389.36 140.884 388.199 140.652C387.085 140.466 385.599 140.141 383.741 139.677L383.671 123.864C384.275 123.864 384.809 123.864 385.274 123.864C385.784 123.911 386.295 123.934 386.806 123.934C389.407 123.934 391.496 123.655 393.075 123.098C394.7 122.541 395.954 121.705 396.837 120.591C397.765 119.522 398.508 118.153 399.066 116.481L404.708 101.853ZM398.09 35.1909L413.694 88.8269L416.341 111.883L401.643 112.65L374.686 35.1909H398.09Z" fill="#271F7F"/>
<path fill-rule="evenodd" clip-rule="evenodd" d="M195.481 1.74098C197.802 -0.580326 201.566 -0.580326 203.887 1.74098L240.74 38.5942C241.855 39.709 242.481 41.2209 242.481 42.7973V105.805C242.481 109.087 239.82 111.749 236.537 111.749C233.254 111.749 230.593 109.087 230.593 105.805V45.2595L199.684 14.3503L167.034 47.0004L158.627 38.5942L195.481 1.74098Z" fill="#271F7F"/>
<path fill-rule="evenodd" clip-rule="evenodd" d="M203.887 1.74098C201.566 -0.580326 197.802 -0.580326 195.481 1.74098L158.627 38.5942C157.513 39.709 156.886 41.2209 156.886 42.7973V105.805C156.886 109.087 159.548 111.749 162.83 111.749C166.113 111.749 168.775 109.087 168.775 105.805V45.2595L199.684 14.3503L232.334 47.0004L240.74 38.5942L203.887 1.74098Z" fill="#271F7F"/>
<path d="M219.894 13.077C219.894 10.4508 222.023 8.32178 224.649 8.32178V8.32178C227.275 8.32178 229.404 10.4508 229.404 13.077V27.3428C229.404 29.9691 227.275 32.0981 224.649 32.0981V32.0981C222.023 32.0981 219.894 29.9691 219.894 27.3428V13.077Z" fill="#271F7F"/>
<path d="M181.852 84.4059C181.852 80.4665 185.045 77.273 188.984 77.273H193.74C197.679 77.273 200.873 80.4665 200.873 84.4059V101.049C200.873 104.989 197.679 108.182 193.74 108.182H188.984C185.045 108.182 181.852 104.989 181.852 101.049V84.4059Z" fill="#271F7F"/>
</svg>
