<svg width="3494" height="2908" viewBox="0 0 3494 2908" fill="none" xmlns="http://www.w3.org/2000/svg">
<rect x="-2.98023e-07" y="5" width="1771.63" height="2230" rx="45" transform="matrix(0.866025 0.5 -0.866025 0.5 1954.56 537.186)" stroke="url(#paint0_linear_416_4754)" stroke-width="10"/>
<rect x="-2.98023e-07" y="5" width="1771.63" height="2230" rx="45" transform="matrix(0.866025 0.5 -0.866025 0.5 1954.56 578.186)" stroke="url(#paint1_linear_416_4754)" stroke-width="10"/>
<rect x="-2.98023e-07" y="5" width="1771.63" height="2230" rx="45" transform="matrix(0.866025 0.5 -0.866025 0.5 1954.56 625.186)" stroke="url(#paint2_linear_416_4754)" stroke-width="10"/>
<rect width="1349" height="1692.42" rx="50" transform="matrix(0.866025 0.5 -0.866025 0.5 1885.68 813)" fill="url(#paint3_linear_416_4754)"/>
<rect width="1349" height="1692.42" rx="50" transform="matrix(0.866025 0.5 -0.866025 0.5 1887.68 780)" fill="url(#paint4_linear_416_4754)"/>
<path d="M2164.52 2500.69L1468.24 2902.69L627 2417" stroke="url(#paint5_linear_416_4754)" stroke-width="10"/>
<g filter="url(#filter0_f_416_4754)">
<rect width="951.106" height="1019.49" rx="50" transform="matrix(0.866025 0.5 -0.866025 0.5 1797.9 1030)" fill="url(#paint6_linear_416_4754)"/>
</g>
<rect width="868.429" height="947.915" rx="50" transform="matrix(-0.866025 -0.5 0.866025 -0.5 1737.08 1972.96)" fill="url(#paint7_linear_416_4754)"/>
<g filter="url(#filter1_df_416_4754)">
<rect width="951.106" height="1019.49" rx="50" transform="matrix(0.866025 0.5 -2.20305e-08 1 1752 11)" fill="url(#paint8_linear_416_4754)" fill-opacity="0.6" shape-rendering="crispEdges"/>
</g>
<g filter="url(#filter2_f_416_4754)">
<rect width="951.106" height="1019.49" rx="50" transform="matrix(0.866025 -0.5 2.20305e-08 1 944 543.553)" fill="url(#paint9_linear_416_4754)" fill-opacity="0.6"/>
</g>
<rect width="664" height="664" rx="332" transform="matrix(0.866025 0.5 -2.20305e-08 1 1427 318)" fill="url(#paint10_linear_416_4754)"/>
<g filter="url(#filter3_f_416_4754)">
<rect width="355.28" height="133.436" rx="50" transform="matrix(0.866025 0.5 0.866025 -0.5 1519 1402.72)" fill="#04011E" fill-opacity="0.19"/>
</g>
<rect x="-2.98023e-07" y="5" width="468.049" height="477.888" rx="45" transform="matrix(0.866025 0.5 -0.866025 0.5 426.854 2026.5)" stroke="url(#paint11_linear_416_4754)" stroke-width="10"/>
<rect width="664" height="664" rx="332" transform="matrix(0.866025 0.5 -2.20305e-08 1 1387 340)" fill="url(#paint12_linear_416_4754)"/>
<g filter="url(#filter4_f_416_4754)">
<rect width="951.106" height="1019.49" rx="50" transform="matrix(0.866025 0.5 -2.20305e-08 1 947 535)" fill="url(#paint13_linear_416_4754)" fill-opacity="0.6"/>
</g>
<g filter="url(#filter5_f_416_4754)">
<rect width="951.106" height="1019.49" rx="50" transform="matrix(0.866025 -0.5 2.20305e-08 1 1752 979.553)" fill="url(#paint14_linear_416_4754)" fill-opacity="0.6"/>
</g>
<path d="M1651.38 996.318L1651.38 632.682L1671.56 644.33L1671.56 1007.97L1651.38 996.318ZM1719.28 780.977C1717.81 765.731 1711.82 751.1 1701.32 737.085C1690.83 723.07 1677.95 711.659 1662.7 702.852C1651.54 696.413 1641.79 692.862 1633.42 692.199C1625.14 691.583 1618.66 693.572 1613.98 698.165C1609.39 702.805 1607.1 709.765 1607.1 719.045C1607.1 726.811 1608.69 734.41 1611.89 741.844C1615.17 749.23 1619.36 756.238 1624.44 762.866C1629.53 769.401 1634.86 775.461 1640.43 781.048C1646.01 786.541 1651.13 791.347 1655.81 795.466L1681.4 818.193C1687.96 823.97 1695.26 830.93 1703.29 839.074C1711.41 847.265 1719.16 856.522 1726.54 866.844C1734.01 877.118 1740.16 888.34 1745 900.509C1749.83 912.677 1752.25 925.58 1752.25 939.216C1752.25 954.936 1748.69 967.08 1741.55 975.651C1734.5 984.268 1724.16 988.387 1710.55 988.009C1697.02 987.677 1680.58 981.924 1661.22 970.75C1643.18 960.333 1627.56 947.952 1614.35 933.605C1601.23 919.306 1590.9 903.965 1583.35 887.582C1575.89 871.247 1571.67 854.841 1570.68 838.364L1602.17 856.545C1602.99 868.004 1606.19 878.941 1611.77 889.358C1617.43 899.727 1624.56 909.15 1633.17 917.625C1641.87 926.053 1651.22 933.155 1661.22 938.932C1672.87 945.655 1683.32 949.514 1692.59 950.509C1701.86 951.408 1709.2 949.491 1714.61 944.756C1720.02 939.926 1722.73 932.208 1722.73 921.602C1722.73 911.943 1720.39 902.734 1715.72 893.974C1711.04 885.215 1704.89 876.74 1697.27 868.548C1689.64 860.357 1681.4 852.284 1672.54 844.33L1641.54 816.205C1621.86 798.307 1606.28 779.983 1594.79 761.233C1583.31 742.483 1577.57 723.307 1577.57 703.705C1577.57 687.417 1581.39 675.414 1589.01 667.696C1596.72 659.931 1607.05 656.427 1620.01 657.185C1633.05 657.895 1647.61 662.89 1663.68 672.17C1679.92 681.545 1694.35 693.241 1706.98 707.256C1719.61 721.176 1729.62 736.044 1737 751.858C1744.46 767.72 1748.4 783.108 1748.81 798.023L1719.28 780.977Z" fill="url(#paint15_linear_416_4754)"/>
<rect x="-2.98023e-07" y="5" width="468.049" height="477.888" rx="45" transform="matrix(0.866025 0.5 -0.866025 0.5 430.854 2065.5)" stroke="url(#paint16_linear_416_4754)" stroke-width="10"/>
<rect width="64.3299" height="64.3299" transform="matrix(0.866025 0.5 -0.866025 0.5 324.712 1859)" fill="url(#paint17_linear_416_4754)"/>
<rect width="64.3299" height="402.062" transform="matrix(0.866025 0.5 -2.20305e-08 1 269 1891.16)" fill="url(#paint18_linear_416_4754)"/>
<rect width="64.3299" height="402.062" transform="matrix(0.866025 -0.5 2.20305e-08 1 325.289 1923.33)" fill="url(#paint19_linear_416_4754)"/>
<rect width="47.0368" height="47.0368" transform="matrix(0.866025 0.5 -0.866025 0.5 380.736 2018)" fill="url(#paint20_linear_416_4754)"/>
<rect width="47.0368" height="293.98" transform="matrix(0.866025 0.5 -2.20305e-08 1 340 2041.52)" fill="url(#paint21_linear_416_4754)"/>
<rect width="47.0368" height="293.98" transform="matrix(0.866025 -0.5 2.20305e-08 1 381.158 2065.04)" fill="url(#paint22_linear_416_4754)"/>
<rect width="35.0368" height="35.0368" transform="matrix(0.866025 0.5 -0.866025 0.5 432.344 2138)" fill="url(#paint23_linear_416_4754)"/>
<rect width="35.0368" height="218.98" transform="matrix(0.866025 0.5 -2.20305e-08 1 402 2155.52)" fill="url(#paint24_linear_416_4754)"/>
<rect width="35.0368" height="218.98" transform="matrix(0.866025 -0.5 2.20305e-08 1 432.658 2173.04)" fill="url(#paint25_linear_416_4754)"/>
<circle r="37.5" transform="matrix(0.866025 0.5 -0.866025 0.5 2164.95 2496.5)" fill="url(#paint26_linear_416_4754)"/>
<circle r="34" transform="matrix(0.866025 0.5 -0.866025 0.5 216.89 2377)" fill="url(#paint27_linear_416_4754)"/>
<circle r="34" transform="matrix(0.866025 0.5 -0.866025 0.5 637.89 2420)" fill="url(#paint28_linear_416_4754)"/>
<defs>
<filter id="filter0_f_416_4754" x="910.366" y="1014.64" width="1715.85" height="1016.01" filterUnits="userSpaceOnUse" color-interpolation-filters="sRGB">
<feFlood flood-opacity="0" result="BackgroundImageFix"/>
<feBlend mode="normal" in="SourceGraphic" in2="BackgroundImageFix" result="shape"/>
<feGaussianBlur stdDeviation="15" result="effect1_foregroundBlur_416_4754"/>
</filter>
<filter id="filter1_df_416_4754" x="1722" y="0.0859375" width="883.682" height="1516.87" filterUnits="userSpaceOnUse" color-interpolation-filters="sRGB">
<feFlood flood-opacity="0" result="BackgroundImageFix"/>
<feColorMatrix in="SourceAlpha" type="matrix" values="0 0 0 0 0 0 0 0 0 0 0 0 0 0 0 0 0 0 127 0" result="hardAlpha"/>
<feOffset dy="4"/>
<feGaussianBlur stdDeviation="2"/>
<feComposite in2="hardAlpha" operator="out"/>
<feColorMatrix type="matrix" values="0 0 0 0 0 0 0 0 0 0 0 0 0 0 0 0 0 0 0.25 0"/>
<feBlend mode="normal" in2="BackgroundImageFix" result="effect1_dropShadow_416_4754"/>
<feBlend mode="normal" in="SourceGraphic" in2="effect1_dropShadow_416_4754" result="shape"/>
<feGaussianBlur stdDeviation="15" result="effect2_foregroundBlur_416_4754"/>
</filter>
<filter id="filter2_f_416_4754" x="914" y="57.0859" width="883.682" height="1516.87" filterUnits="userSpaceOnUse" color-interpolation-filters="sRGB">
<feFlood flood-opacity="0" result="BackgroundImageFix"/>
<feBlend mode="normal" in="SourceGraphic" in2="BackgroundImageFix" result="shape"/>
<feGaussianBlur stdDeviation="15" result="effect1_foregroundBlur_416_4754"/>
</filter>
<filter id="filter3_f_416_4754" x="1494.37" y="1300.64" width="472.51" height="315.068" filterUnits="userSpaceOnUse" color-interpolation-filters="sRGB">
<feFlood flood-opacity="0" result="BackgroundImageFix"/>
<feBlend mode="normal" in="SourceGraphic" in2="BackgroundImageFix" result="shape"/>
<feGaussianBlur stdDeviation="25" result="effect1_foregroundBlur_416_4754"/>
</filter>
<filter id="filter4_f_416_4754" x="917" y="524.086" width="883.682" height="1516.87" filterUnits="userSpaceOnUse" color-interpolation-filters="sRGB">
<feFlood flood-opacity="0" result="BackgroundImageFix"/>
<feBlend mode="normal" in="SourceGraphic" in2="BackgroundImageFix" result="shape"/>
<feGaussianBlur stdDeviation="15" result="effect1_foregroundBlur_416_4754"/>
</filter>
<filter id="filter5_f_416_4754" x="1722" y="493.086" width="883.682" height="1516.87" filterUnits="userSpaceOnUse" color-interpolation-filters="sRGB">
<feFlood flood-opacity="0" result="BackgroundImageFix"/>
<feBlend mode="normal" in="SourceGraphic" in2="BackgroundImageFix" result="shape"/>
<feGaussianBlur stdDeviation="15" result="effect1_foregroundBlur_416_4754"/>
</filter>
<linearGradient id="paint0_linear_416_4754" x1="-27.2193" y1="2474.42" x2="2051.41" y2="2432.42" gradientUnits="userSpaceOnUse">
<stop offset="0.0135415" stop-color="#6930C3"/>
<stop offset="0.546875" stop-color="#271F7F"/>
<stop offset="1" stop-color="#271F7F"/>
</linearGradient>
<linearGradient id="paint1_linear_416_4754" x1="-27.2193" y1="2474.42" x2="2051.41" y2="2432.42" gradientUnits="userSpaceOnUse">
<stop offset="0.0135415" stop-color="#6930C3"/>
<stop offset="0.546875" stop-color="#271F7F"/>
<stop offset="1" stop-color="#271F7F"/>
</linearGradient>
<linearGradient id="paint2_linear_416_4754" x1="-27.2193" y1="2474.42" x2="2051.41" y2="2432.42" gradientUnits="userSpaceOnUse">
<stop offset="0.0135415" stop-color="#6930C3"/>
<stop offset="0.546875" stop-color="#271F7F"/>
<stop offset="1" stop-color="#271F7F"/>
</linearGradient>
<linearGradient id="paint3_linear_416_4754" x1="-246.915" y1="-275.019" x2="1823.15" y2="-64.5583" gradientUnits="userSpaceOnUse">
<stop stop-color="#7400B8"/>
<stop offset="1" stop-color="#6930C3"/>
</linearGradient>
<linearGradient id="paint4_linear_416_4754" x1="-246.915" y1="-275.019" x2="1823.15" y2="-64.5583" gradientUnits="userSpaceOnUse">
<stop stop-color="#EEE4FF"/>
<stop offset="1" stop-color="#5E60CE"/>
</linearGradient>
<linearGradient id="paint5_linear_416_4754" x1="541.281" y1="2451.65" x2="1062.8" y2="3301.15" gradientUnits="userSpaceOnUse">
<stop offset="0.0135415" stop-color="#6930C3"/>
<stop offset="0.546875" stop-color="#271F7F"/>
<stop offset="1" stop-color="#271F7F"/>
</linearGradient>
<linearGradient id="paint6_linear_416_4754" x1="-174.086" y1="-165.667" x2="1279.9" y2="7.35213" gradientUnits="userSpaceOnUse">
<stop stop-opacity="0"/>
<stop offset="1" stop-color="#271F7F" stop-opacity="0.23"/>
</linearGradient>
<linearGradient id="paint7_linear_416_4754" x1="-13.2677" y1="1047.11" x2="999.797" y2="1023.54" gradientUnits="userSpaceOnUse">
<stop offset="0.0135415" stop-color="#6930C3"/>
<stop offset="0.546875" stop-color="#271F7F"/>
<stop offset="1" stop-color="#271F7F"/>
</linearGradient>
<linearGradient id="paint8_linear_416_4754" x1="0.000159433" y1="1117" x2="-205.304" y2="150.735" gradientUnits="userSpaceOnUse">
<stop offset="0.0977609" stop-color="#5E60CE"/>
<stop offset="1" stop-color="#7400B8" stop-opacity="0"/>
</linearGradient>
<linearGradient id="paint9_linear_416_4754" x1="0.000159433" y1="1117" x2="-205.304" y2="150.735" gradientUnits="userSpaceOnUse">
<stop offset="0.0977609" stop-color="#5E60CE"/>
<stop offset="1" stop-color="#7400B8" stop-opacity="0"/>
</linearGradient>
<linearGradient id="paint10_linear_416_4754" x1="0.000111306" y1="727.512" x2="-125.45" y2="94.6307" gradientUnits="userSpaceOnUse">
<stop offset="0.0977609" stop-color="#D9DAFF"/>
<stop offset="1" stop-color="#E8C0FF"/>
</linearGradient>
<linearGradient id="paint11_linear_416_4754" x1="-7.30352" y1="538.945" x2="550.32" y2="525.065" gradientUnits="userSpaceOnUse">
<stop offset="0.0135415" stop-color="#6930C3"/>
<stop offset="0.546875" stop-color="#271F7F"/>
<stop offset="1" stop-color="#271F7F"/>
</linearGradient>
<linearGradient id="paint12_linear_416_4754" x1="-10.1444" y1="733.488" x2="764.363" y2="713.812" gradientUnits="userSpaceOnUse">
<stop offset="0.0135415" stop-color="#6930C3"/>
<stop offset="0.546875" stop-color="#271F7F"/>
<stop offset="1" stop-color="#271F7F"/>
</linearGradient>
<linearGradient id="paint13_linear_416_4754" x1="0.000159433" y1="1117" x2="-205.304" y2="150.735" gradientUnits="userSpaceOnUse">
<stop offset="0.0977609" stop-color="#5E60CE"/>
<stop offset="1" stop-color="#7400B8" stop-opacity="0"/>
</linearGradient>
<linearGradient id="paint14_linear_416_4754" x1="0.000159433" y1="1117" x2="-205.304" y2="150.735" gradientUnits="userSpaceOnUse">
<stop offset="0.0977609" stop-color="#5E60CE"/>
<stop offset="1" stop-color="#7400B8" stop-opacity="0"/>
</linearGradient>
<linearGradient id="paint15_linear_416_4754" x1="1551" y1="893.459" x2="1648.71" y2="581.941" gradientUnits="userSpaceOnUse">
<stop offset="0.0977609" stop-color="#F6F6FF"/>
<stop offset="1" stop-color="#FEFDFF" stop-opacity="0"/>
</linearGradient>
<linearGradient id="paint16_linear_416_4754" x1="-7.30352" y1="538.945" x2="550.32" y2="525.065" gradientUnits="userSpaceOnUse">
<stop offset="0.0135415" stop-color="#6930C3"/>
<stop offset="0.546875" stop-color="#271F7F"/>
<stop offset="1" stop-color="#271F7F"/>
</linearGradient>
<linearGradient id="paint17_linear_416_4754" x1="-11.7747" y1="-10.4536" x2="86.3646" y2="2.06414" gradientUnits="userSpaceOnUse">
<stop stop-color="#271F7F"/>
<stop offset="1" stop-color="#6930C3"/>
</linearGradient>
<linearGradient id="paint18_linear_416_4754" x1="-0.982817" y1="444.138" x2="74.1005" y2="443.833" gradientUnits="userSpaceOnUse">
<stop offset="0.0135415" stop-color="#6930C3"/>
<stop offset="0.546875" stop-color="#271F7F"/>
<stop offset="1" stop-color="#271F7F"/>
</linearGradient>
<linearGradient id="paint19_linear_416_4754" x1="-0.982817" y1="444.138" x2="74.1005" y2="443.833" gradientUnits="userSpaceOnUse">
<stop offset="0.0135415" stop-color="#6930C3"/>
<stop offset="0.546875" stop-color="#271F7F"/>
<stop offset="1" stop-color="#271F7F"/>
</linearGradient>
<linearGradient id="paint20_linear_416_4754" x1="-8.60941" y1="-7.64349" x2="63.1482" y2="1.50926" gradientUnits="userSpaceOnUse">
<stop stop-color="#271F7F"/>
<stop offset="1" stop-color="#6930C3"/>
</linearGradient>
<linearGradient id="paint21_linear_416_4754" x1="-0.718618" y1="324.745" x2="54.1809" y2="324.522" gradientUnits="userSpaceOnUse">
<stop offset="0.0135415" stop-color="#6930C3"/>
<stop offset="0.546875" stop-color="#271F7F"/>
<stop offset="1" stop-color="#271F7F"/>
</linearGradient>
<linearGradient id="paint22_linear_416_4754" x1="-0.718618" y1="324.745" x2="54.1809" y2="324.522" gradientUnits="userSpaceOnUse">
<stop offset="0.0135415" stop-color="#6930C3"/>
<stop offset="0.546875" stop-color="#271F7F"/>
<stop offset="1" stop-color="#271F7F"/>
</linearGradient>
<linearGradient id="paint23_linear_416_4754" x1="-6.41299" y1="-5.69349" x2="47.0379" y2="1.12422" gradientUnits="userSpaceOnUse">
<stop stop-color="#271F7F"/>
<stop offset="1" stop-color="#6930C3"/>
</linearGradient>
<linearGradient id="paint24_linear_416_4754" x1="-0.535284" y1="241.896" x2="40.3583" y2="241.73" gradientUnits="userSpaceOnUse">
<stop offset="0.0135415" stop-color="#6930C3"/>
<stop offset="0.546875" stop-color="#271F7F"/>
<stop offset="1" stop-color="#271F7F"/>
</linearGradient>
<linearGradient id="paint25_linear_416_4754" x1="-0.535284" y1="241.896" x2="40.3583" y2="241.73" gradientUnits="userSpaceOnUse">
<stop offset="0.0135415" stop-color="#6930C3"/>
<stop offset="0.546875" stop-color="#271F7F"/>
<stop offset="1" stop-color="#271F7F"/>
</linearGradient>
<linearGradient id="paint26_linear_416_4754" x1="-1.14583" y1="82.8488" x2="86.3362" y2="80.6264" gradientUnits="userSpaceOnUse">
<stop offset="0.0135415" stop-color="#6930C3"/>
<stop offset="0.546875" stop-color="#271F7F"/>
<stop offset="1" stop-color="#271F7F"/>
</linearGradient>
<linearGradient id="paint27_linear_416_4754" x1="-1.03889" y1="75.1162" x2="78.2781" y2="73.1012" gradientUnits="userSpaceOnUse">
<stop offset="0.0135415" stop-color="#6930C3"/>
<stop offset="0.546875" stop-color="#271F7F"/>
<stop offset="1" stop-color="#271F7F"/>
</linearGradient>
<linearGradient id="paint28_linear_416_4754" x1="-1.03889" y1="75.1162" x2="78.2781" y2="73.1012" gradientUnits="userSpaceOnUse">
<stop offset="0.0135415" stop-color="#6930C3"/>
<stop offset="0.546875" stop-color="#271F7F"/>
<stop offset="1" stop-color="#271F7F"/>
</linearGradient>
</defs>
</svg>
