<svg width="166" height="178" viewBox="0 0 166 178" fill="none" xmlns="http://www.w3.org/2000/svg">
<rect x="-2.98023e-08" y="0.5" width="88.5668" height="88.5668" rx="19.5" transform="matrix(0.866025 0.5 -0.866025 0.5 88.433 79.25)" stroke="url(#paint0_linear_35_1368)"/>
<rect x="-2.98023e-08" y="0.5" width="88.5668" height="88.5668" rx="19.5" transform="matrix(0.866025 0.5 -0.866025 0.5 88.433 88.25)" stroke="url(#paint1_linear_35_1368)"/>
<rect x="-2.98023e-08" y="0.5" width="88.5668" height="88.5668" rx="19.5" transform="matrix(0.866025 0.5 -0.866025 0.5 88.433 72.25)" fill="url(#paint2_linear_35_1368)" stroke="url(#paint3_linear_35_1368)"/>
<g opacity="0.4">
<path d="M77.8629 74.2607L81.8167 76.5435L91.902 111.346L101.966 88.1768L105.941 90.4717L93.4243 118.792L90.3374 117.01L77.8629 74.2607ZM76.5732 73.5161L80.0618 75.5303L80.6327 97.5396L80.6327 111.407L76.5732 109.063L76.5732 73.5161ZM103.721 89.1899L107.21 91.2041L107.21 126.751L103.15 124.407L103.15 110.54L103.721 89.1899Z" fill="#FBFFFE"/>
<path d="M77.8629 74.2607L77.8629 73.2607L76.5776 72.5186L77.0603 74.1729L77.8629 74.2607ZM81.8167 76.5435L82.6203 76.6345L82.402 75.8814L81.8167 75.5435L81.8167 76.5435ZM91.902 111.346L91.0984 111.255L91.9029 114.03L92.7058 112.182L91.902 111.346ZM101.966 88.1768L101.966 87.1768L101.38 86.8386L101.162 87.3405L101.966 88.1768ZM105.941 90.4717L106.743 91.3115L107.228 90.2147L105.941 89.4717L105.941 90.4717ZM93.4243 118.792L93.4243 119.792L94.0071 120.128L94.2266 119.632L93.4243 118.792ZM90.3374 117.01L89.5348 116.922L89.7539 117.673L90.3374 118.01L90.3374 117.01ZM76.5732 73.5161L76.5732 72.5161L75.7072 72.0161L75.7072 73.0161L76.5732 73.5161ZM80.0618 75.5303L80.9275 75.9997L80.9019 75.0153L80.0618 74.5303L80.0618 75.5303ZM80.6327 97.5396L81.4987 98.0396L81.4987 98.0244L81.4983 98.0089L80.6327 97.5396ZM80.6327 111.407L80.6327 112.407L81.4987 112.907L81.4987 111.907L80.6327 111.407ZM76.5732 109.063L75.7072 108.563L75.7072 109.563L76.5732 110.063L76.5732 109.063ZM103.721 89.1899L103.721 88.1899L102.881 87.7049L102.855 88.6598L103.721 89.1899ZM107.21 91.2041L108.076 91.7041L108.076 90.7041L107.21 90.2041L107.21 91.2041ZM107.21 126.751L107.21 127.751L108.076 128.251L108.076 127.251L107.21 126.751ZM103.15 124.407L102.284 123.907L102.284 124.907L103.15 125.407L103.15 124.407ZM103.15 110.54L102.285 110.01L102.284 110.025L102.284 110.04L103.15 110.54ZM77.8629 75.2607L81.8167 77.5435L81.8167 75.5435L77.8629 73.2607L77.8629 75.2607ZM81.0131 76.4524L91.0984 111.255L92.7056 111.437L82.6203 76.6345L81.0131 76.4524ZM92.7058 112.182L102.77 89.013L101.162 87.3405L91.0982 110.509L92.7058 112.182ZM101.966 89.1768L105.941 91.4717L105.941 89.4717L101.966 87.1768L101.966 89.1768ZM105.139 89.6319L92.6221 117.952L94.2266 119.632L106.743 91.3115L105.139 89.6319ZM93.4243 117.792L90.3374 116.01L90.3374 118.01L93.4243 119.792L93.4243 117.792ZM91.1401 117.098L78.6656 74.3486L77.0603 74.1729L89.5348 116.922L91.1401 117.098ZM76.5732 74.5161L80.0618 76.5303L80.0618 74.5303L76.5732 72.5161L76.5732 74.5161ZM79.1962 75.0609L79.7671 97.0702L81.4983 98.0089L80.9275 75.9997L79.1962 75.0609ZM79.7667 97.0396L79.7667 110.907L81.4987 111.907L81.4987 98.0396L79.7667 97.0396ZM80.6327 110.407L76.5732 108.063L76.5732 110.063L80.6327 112.407L80.6327 110.407ZM77.4392 109.563L77.4392 74.0161L75.7072 73.0161L75.7072 108.563L77.4392 109.563ZM103.721 90.1899L107.21 92.2041L107.21 90.2041L103.721 88.1899L103.721 90.1899ZM106.344 90.7041L106.344 126.251L108.076 127.251L108.076 91.7041L106.344 90.7041ZM107.21 125.751L103.15 123.407L103.15 125.407L107.21 127.751L107.21 125.751ZM104.016 124.907L104.016 111.04L102.284 110.04L102.284 123.907L104.016 124.907ZM104.016 111.07L104.587 89.7201L102.855 88.6598L102.285 110.01L104.016 111.07Z" fill="url(#paint4_linear_35_1368)"/>
</g>
<path d="M69.8629 74.2607L73.8167 76.5435L83.902 111.346L93.9662 88.1768L97.9411 90.4717L85.4243 118.792L82.3374 117.01L69.8629 74.2607ZM68.5732 73.5161L72.0618 75.5303L72.6327 97.5396L72.6327 111.407L68.5732 109.063L68.5732 73.5161ZM95.7211 89.1899L99.2097 91.2041L99.2097 126.751L95.1502 124.407L95.1502 110.54L95.7211 89.1899Z" fill="#FBFFFE"/>
<path d="M69.8629 74.2607L69.8629 73.2607L68.5776 72.5186L69.0603 74.1729L69.8629 74.2607ZM73.8167 76.5435L74.6203 76.6345L74.402 75.8814L73.8167 75.5435L73.8167 76.5435ZM83.902 111.346L83.0984 111.255L83.9029 114.03L84.7058 112.182L83.902 111.346ZM93.9662 88.1768L93.9662 87.1768L93.3804 86.8386L93.1624 87.3405L93.9662 88.1768ZM97.9411 90.4717L98.7434 91.3115L99.2281 90.2147L97.9411 89.4717L97.9411 90.4717ZM85.4243 118.792L85.4243 119.792L86.0071 120.128L86.2266 119.632L85.4243 118.792ZM82.3374 117.01L81.5348 116.922L81.7539 117.673L82.3374 118.01L82.3374 117.01ZM68.5732 73.5161L68.5732 72.5161L67.7072 72.0161L67.7072 73.0161L68.5732 73.5161ZM72.0618 75.5303L72.9275 75.9997L72.9019 75.0153L72.0618 74.5303L72.0618 75.5303ZM72.6327 97.5396L73.4987 98.0396L73.4987 98.0244L73.4983 98.0089L72.6327 97.5396ZM72.6327 111.407L72.6327 112.407L73.4987 112.907L73.4987 111.907L72.6327 111.407ZM68.5732 109.063L67.7072 108.563L67.7072 109.563L68.5732 110.063L68.5732 109.063ZM95.7211 89.1899L95.7211 88.1899L94.881 87.7049L94.8554 88.6598L95.7211 89.1899ZM99.2097 91.2041L100.076 91.7041L100.076 90.7041L99.2097 90.2041L99.2097 91.2041ZM99.2097 126.751L99.2097 127.751L100.076 128.251L100.076 127.251L99.2097 126.751ZM95.1502 124.407L94.2842 123.907L94.2842 124.907L95.1502 125.407L95.1502 124.407ZM95.1502 110.54L94.2846 110.01L94.2842 110.025L94.2842 110.04L95.1502 110.54ZM69.8629 75.2607L73.8167 77.5435L73.8167 75.5435L69.8629 73.2607L69.8629 75.2607ZM73.0131 76.4524L83.0984 111.255L84.7056 111.437L74.6203 76.6345L73.0131 76.4524ZM84.7058 112.182L94.77 89.013L93.1624 87.3405L83.0982 110.509L84.7058 112.182ZM93.9662 89.1768L97.9411 91.4717L97.9411 89.4717L93.9662 87.1768L93.9662 89.1768ZM97.1389 89.6319L84.6221 117.952L86.2266 119.632L98.7434 91.3115L97.1389 89.6319ZM85.4243 117.792L82.3374 116.01L82.3374 118.01L85.4243 119.792L85.4243 117.792ZM83.1401 117.098L70.6656 74.3486L69.0603 74.1729L81.5348 116.922L83.1401 117.098ZM68.5732 74.5161L72.0618 76.5303L72.0618 74.5303L68.5732 72.5161L68.5732 74.5161ZM71.1962 75.0609L71.7671 97.0702L73.4983 98.0089L72.9275 75.9997L71.1962 75.0609ZM71.7667 97.0396L71.7667 110.907L73.4987 111.907L73.4987 98.0396L71.7667 97.0396ZM72.6327 110.407L68.5732 108.063L68.5732 110.063L72.6327 112.407L72.6327 110.407ZM69.4392 109.563L69.4392 74.0161L67.7072 73.0161L67.7072 108.563L69.4392 109.563ZM95.7211 90.1899L99.2097 92.2041L99.2097 90.2041L95.7211 88.1899L95.7211 90.1899ZM98.3437 90.7041L98.3437 126.251L100.076 127.251L100.076 91.7041L98.3437 90.7041ZM99.2097 125.751L95.1502 123.407L95.1502 125.407L99.2097 127.751L99.2097 125.751ZM96.0162 124.907L96.0162 111.04L94.2842 110.04L94.2842 123.907L96.0162 124.907ZM96.0158 111.07L96.5867 89.7201L94.8554 88.6598L94.2846 110.01L96.0158 111.07Z" fill="url(#paint5_linear_35_1368)"/>
<path d="M40.2082 30.1387L40.2082 32.4385L30.2117 38.21L30.2117 35.9102L40.2082 30.1387ZM30.5923 26.5205L30.5923 47.8486L28.1439 49.2622L28.1439 27.9341L30.5923 26.5205ZM42.3395 19.7383L42.3395 41.0664L39.9038 42.4727L39.9038 21.1445L42.3395 19.7383Z" fill="#FBFFFE"/>
<path d="M40.2082 30.1387L41.0743 29.6387L41.0743 28.6387L40.2082 29.1387L40.2082 30.1387ZM40.2082 32.4385L40.2082 33.4385L41.0743 32.9385L41.0743 31.9385L40.2082 32.4385ZM30.2117 38.21L29.3457 38.71L29.3457 39.71L30.2117 39.21L30.2117 38.21ZM30.2117 35.9102L30.2117 34.9102L29.3457 35.4102L29.3457 36.4102L30.2117 35.9102ZM30.5923 26.5205L31.4583 26.0205L31.4583 25.0205L30.5923 25.5205L30.5923 26.5205ZM30.5923 47.8486L30.5923 48.8486L31.4583 48.3486L31.4583 47.3486L30.5923 47.8486ZM28.1439 49.2622L27.2779 49.7622L27.2779 50.7622L28.1439 50.2622L28.1439 49.2622ZM28.1439 27.9341L28.1439 26.9341L27.2779 27.4341L27.2779 28.4341L28.1439 27.9341ZM42.3395 19.7383L43.2055 19.2383L43.2055 18.2383L42.3395 18.7383L42.3395 19.7383ZM42.3395 41.0664L42.3395 42.0664L43.2055 41.5664L43.2055 40.5664L42.3395 41.0664ZM39.9038 42.4727L39.0377 42.9727L39.0377 43.9727L39.9038 43.4727L39.9038 42.4727ZM39.9038 21.1445L39.9038 20.1445L39.0377 20.6445L39.0377 21.6445L39.9038 21.1445ZM39.3422 30.6387L39.3422 32.9385L41.0743 31.9385L41.0743 29.6387L39.3422 30.6387ZM40.2082 31.4385L30.2117 37.21L30.2117 39.21L40.2082 33.4385L40.2082 31.4385ZM31.0778 37.71L31.0778 35.4102L29.3457 36.4102L29.3457 38.71L31.0778 37.71ZM30.2117 36.9102L40.2082 31.1387L40.2082 29.1387L30.2117 34.9102L30.2117 36.9102ZM29.7263 27.0205L29.7263 48.3486L31.4583 47.3486L31.4583 26.0205L29.7263 27.0205ZM30.5923 46.8486L28.1439 48.2622L28.1439 50.2622L30.5923 48.8486L30.5923 46.8486ZM29.0099 48.7622L29.0099 27.4341L27.2779 28.4341L27.2779 49.7622L29.0099 48.7622ZM28.1439 28.9341L30.5923 27.5205L30.5923 25.5205L28.1439 26.9341L28.1439 28.9341ZM41.4734 20.2383L41.4734 41.5664L43.2055 40.5664L43.2055 19.2383L41.4734 20.2383ZM42.3395 40.0664L39.9038 41.4727L39.9038 43.4727L42.3395 42.0664L42.3395 40.0664ZM40.7698 41.9727L40.7698 20.6445L39.0377 21.6445L39.0377 42.9727L40.7698 41.9727ZM39.9038 22.1445L42.3395 20.7383L42.3395 18.7383L39.9038 20.1445L39.9038 22.1445Z" fill="url(#paint6_linear_35_1368)"/>
<path d="M40.1051 100.75L1.99997 78.75L41.1937 56.1215" stroke="#6930C3" stroke-width="2" stroke-linecap="round" stroke-linejoin="round"/>
<circle r="5" transform="matrix(0.866025 0.5 -0.866025 0.5 43.6602 55)" fill="#6930C3"/>
<defs>
<linearGradient id="paint0_linear_35_1368" x1="-16.3939" y1="-14.5546" x2="120.246" y2="2.87392" gradientUnits="userSpaceOnUse">
<stop stop-color="#6930C3"/>
<stop offset="1" stop-color="#00FFD4"/>
</linearGradient>
<linearGradient id="paint1_linear_35_1368" x1="-16.3939" y1="-14.5546" x2="120.246" y2="2.87392" gradientUnits="userSpaceOnUse">
<stop stop-color="#6930C3"/>
<stop offset="1" stop-color="#00FFD4"/>
</linearGradient>
<linearGradient id="paint2_linear_35_1368" x1="-16.3939" y1="-14.5546" x2="120.246" y2="2.87392" gradientUnits="userSpaceOnUse">
<stop stop-color="#6930C3"/>
<stop offset="1" stop-color="#00FFD4"/>
</linearGradient>
<linearGradient id="paint3_linear_35_1368" x1="-16.3939" y1="-14.5546" x2="120.246" y2="2.87392" gradientUnits="userSpaceOnUse">
<stop stop-color="#6930C3"/>
<stop offset="1" stop-color="#00FFD4"/>
</linearGradient>
<linearGradient id="paint4_linear_35_1368" x1="65.8669" y1="45.1567" x2="128.645" y2="50.0997" gradientUnits="userSpaceOnUse">
<stop stop-color="#6930C3"/>
<stop offset="1" stop-color="#00FFD4"/>
</linearGradient>
<linearGradient id="paint5_linear_35_1368" x1="57.8669" y1="45.1567" x2="120.645" y2="50.0997" gradientUnits="userSpaceOnUse">
<stop stop-color="#6930C3"/>
<stop offset="1" stop-color="#00FFD4"/>
</linearGradient>
<linearGradient id="paint6_linear_35_1368" x1="18.8669" y1="15.8933" x2="76.4692" y2="20.0508" gradientUnits="userSpaceOnUse">
<stop stop-color="#6930C3"/>
<stop offset="1" stop-color="#00FFD4"/>
</linearGradient>
</defs>
</svg>
